<?xml version="1.0" encoding="iso-8859-1"?>
<!-- Generator: Adobe Illustrator 19.0.0, SVG Export Plug-In . SVG Version: 6.00 Build 0)  -->
<svg xmlns="http://www.w3.org/2000/svg" xmlns:xlink="http://www.w3.org/1999/xlink" version="1.1" id="Layer_1" x="0px" y="0px" viewBox="0 0 403.222 403.222" style="enable-background:new 0 0 403.222 403.222;" xml:space="preserve" width="512" height="512">
<g>
	<path style="fill:#61ACD2;" d="M95.071,119.413c-16.458-11.38-35.1-16.149-47.839-18.146l-18.958-2.972L43.73,86.92   c24.337-17.911,48.192-26.993,70.903-26.993c3.086,0,6.18,0.175,9.195,0.519c9.356,1.059,18.245,3.733,26.413,7.948l12.78,6.596   l-12.344,7.38c-2.405,1.438-4.835,2.93-7.221,4.433c-14.601,9.268-27.368,19.844-37.923,31.421l-4.71,5.167L95.071,119.413z"/>
	<path style="fill:#61ACD2;" d="M126.546,354.97c-6.703,0-12.849-3.858-15.785-9.868c-0.067-0.138-0.556-1.182-0.655-1.378   c-2.492-4.965-7.196-8.474-12.708-9.441c-1.005-0.177-2.032-0.267-3.05-0.267c-4.704,0-9.291,1.927-12.584,5.287l-3.419,3.488   c-3.349,3.414-7.813,5.292-12.572,5.292c-0.6,0-1.91-0.1-1.91-0.1l-57.245-1.989l3.445-10.186   c11.313-33.451,62.384-43.549,70.099-44.892c0.422-0.206,3.901-2.553,4.046-2.643c-5.703-9.391-19.826-42.794-16.41-84.259   c2.403-29.087,12.718-55.233,30.66-77.714c1.804-2.214,4.485-5.38,4.485-5.38c10.996-12.555,24.632-24.036,40.532-34.125   c40.179-25.494,80.514-38.421,119.884-38.421c22.269,0,39.199,4.245,49.48,7.807c7.903,2.729,15.359,6.927,22.151,12.474   c32.176,26.083,35.278,55.027,35.394,56.246c26.974,10.865,25.827,25.859,24.083,31.803c-2.814,9.615-11.932,16.319-18.353,16.319   c-0.598,0-2.399-0.313-2.399-0.313c-7.574-2.099-34.986-5.756-56.169-8.252l-0.018-0.001c-11.001-1.013-21.737-1.526-31.911-1.526   c-52.294,0-93.483,13.403-122.421,39.837c-39.65,36.212-43.168,84.602-43.476,93.715c0.968,1.16,2.907,2.819,4.107,3.569   c7.743,0.805,45.938,6.484,58.581,40.835l3.688,10.02l-57.052,3.886C128.218,354.911,127.378,354.97,126.546,354.97z"/>
	<g>
		<circle style="fill:#050000;" cx="321.149" cy="104.99" r="8"/>
		<path style="fill:#050000;" d="M377.531,119.303c-2.23-10.25-10.19-34.71-37.5-56.85c-7.49-6.12-15.75-10.78-24.58-13.83    c-14.12-4.9-37.28-10.21-67.4-7.75c-28.18,2.3-56.81,10.95-85.39,25.7c-5.93-4.21-18.58-11.63-36.78-13.94    c-22.76-2.9-59.14,1.88-103.18,41.07c-2.5,2.23-3.35,5.79-2.12,8.91c1.23,3.12,4.27,5.14,7.63,5.06c0.36,0,34.03-0.54,61.17,17.55    c-20.51,27.5-27.71,55.8-29.56,78.14c-2.87,34.84,5.88,64.57,13.29,80.8c-18.37,4.08-70.04,19.24-73.09,61.31    c-0.16,2.16,0.58,4.3,2.03,5.92c1.45,1.62,3.5,2.57,5.67,2.65l55.73,1.94c7.7,0.69,15.19-2.06,20.61-7.59l3.41-3.49    c2.26-2.3,5.37-3.3,8.55-2.74c2.814,0.488,5.171,2.119,6.602,4.529c0.181,0.305,0.905,1.842,1.035,2.103    c4.875,9.818,15.264,15.371,26.193,13.958l55.84-3.8c1.51-0.1,2.94-0.62,4.14-1.49c0.61-0.44,1.17-0.97,1.64-1.58    c1.4-1.8,1.96-4.11,1.55-6.36c-4.1-22.23-17.63-39.27-39.12-49.27c-10.36-4.82-20.2-6.88-25.9-7.73    c1.28-14.23,7.77-53.87,40.59-83.85c32.91-30.05,82.74-42.26,148.11-36.26c12.64,1.49,46.83,5.78,54.87,8.01    c5.87,1.63,12.63-0.28,18.4-4.44c5.21-3.77,9.61-9.37,11.81-15.89C403.871,153.923,407.991,133.373,377.531,119.303z     M48.471,93.363c25.83-19.01,51.29-27.61,74.45-24.97c10.07,1.14,18.07,4.23,23.65,7.11c-2.46,1.47-4.92,2.98-7.38,4.53    c-16.18,10.27-29.15,21.37-39.57,32.8C82.251,100.823,62.761,95.603,48.471,93.363z M386.791,154.453    c-2.09,7.14-9.1,10.9-10.94,10.55c-10.72-2.97-52.64-7.93-57.39-8.49c-0.06-0.01-0.13-0.02-0.2-0.02    c-70.09-6.45-124.07,7.13-160.46,40.37c-45.67,41.71-46.11,98.65-46.11,101.06c0,3.29,8.15,9.87,10.35,10    c0.44,0.03,40.74,2.8,52.86,35.73l-46.4,3.16c-0.19,0.01-0.38,0.03-0.57,0.06c-4.048,0.57-7.906-1.397-9.807-4.94    c-0.1-0.186-0.689-1.438-0.813-1.688c-3.611-7.281-10.486-12.431-18.53-13.842c-8.32-1.46-16.82,1.27-22.73,7.3l-3.42,3.49    c-2.06,2.1-4.92,3.14-7.85,2.84c-0.18-0.02-0.35-0.03-0.53-0.04l-46.61-1.62c10.4-30.75,63.69-39.54,64.28-39.64    c2.07-0.32,6.02-3.36,6.49-3.65c3.76-2.32,4.96-7.23,2.65-11c-5.35-8.75-18.53-40.08-15.29-79.41    c2.28-27.6,11.98-52.13,28.94-73.38c1.98-2.43,2.17-2.64,4.25-5.1c10.51-12,23.45-22.9,38.8-32.64    c79.21-50.26,140-37.59,162.46-29.81c7.04,2.43,13.66,6.17,19.71,11.11c29.42,23.85,32.39,49.76,32.49,50.81    c0.27,2.99,2.2,5.58,4.99,6.7C376.051,135.833,390.061,143.313,386.791,154.453z"/>
	</g>
</g>















</svg>
