<?xml version="1.0" encoding="iso-8859-1"?>
<!-- Generator: Adobe Illustrator 19.0.0, SVG Export Plug-In . SVG Version: 6.00 Build 0)  -->
<svg xmlns="http://www.w3.org/2000/svg" xmlns:xlink="http://www.w3.org/1999/xlink" version="1.1" id="Layer_1" x="0px" y="0px" viewBox="0 0 452 452" style="enable-background:new 0 0 452 452;" xml:space="preserve" width="512" height="512">
<g>
	<path style="fill:#EFEFEF;" d="M299.573,407.08l-2.361-3.684c-22.448-35.035-5.768-64.612-0.121-72.843l2.384-3.474h48.273   c18.031,0,40.637,26.818,47.136,35.038l3.922,4.96l-3.92,4.962c-6.495,8.22-29.088,35.04-47.138,35.04H299.573z"/>
	<polygon style="fill:#EFEFEF;" points="188.78,407.08 254.709,407.08 226.701,443.994  "/>
	<path style="fill:#EFEFEF;" d="M308.524,51.771c-9.232-2.555-18.823-3.851-28.507-3.851H137.892l3.408-10.476   c2.008-6.172,1.988-12.573-0.058-19.025L137.937,8h141.264l0.254,0.017c15.198,0.967,26.186,5.899,32.656,14.66   c4.168,5.653,6.43,13.007,6.545,21.272l0.149,10.667L308.524,51.771z"/>
	<path style="fill:#61ACD2;" d="M188.778,407.08c-59.623,0-108.13-48.507-108.13-108.13v-5.271   c0-59.623,48.507-108.13,108.13-108.13h90.439c15.511,0,28.13-12.619,28.13-28.13v-1.37c0-15.511-12.619-28.13-28.13-28.13H53.661   l38.988-41.918L53.658,47.92h226.359c59.182,0,107.33,48.148,107.33,107.33v2.17c0,59.623-48.507,108.13-108.13,108.13h-90.439   c-15.511,0-28.13,12.619-28.13,28.13v5.271c0,15.511,12.619,28.13,28.13,28.13h109.341l-5.636,11.517   c-1.896,3.875-3.421,7.921-4.533,12.025c-2.798,10.36-4.234,26.569,4.821,44.917l5.696,11.541H188.778z"/>
	<g>
		<circle cx="342.685" cy="359.15" r="8"/>
		<path d="M404.817,361.99c-3.19-4.4-31.85-42.91-57.07-42.91h-158.97c-11.09,0-20.13-9.03-20.13-20.13v-5.27    c0-11.1,9.04-20.13,20.13-20.13h90.44c64.03,0,116.13-52.09,116.13-116.13v-2.17c0-47.09-28.37-87.67-68.91-105.57    c0.67-7.78,0.2-20.68-7.78-31.61c-7.88-10.78-20.8-16.84-38.41-18.02c-0.19-0.01-1.72-0.05-1.72-0.05h-142.82    c-3.12,0-5.97,1.79-7.28,4.62c-1.31,2.83-0.88,6.13,1.14,8.51c1.11,1.36,9.97,12.89,1.87,26.79h-77.79c-3.25,0-6.18,1.97-7.4,4.98    c-1.23,3.01-0.51,6.47,1.82,8.74l33.41,32.63l-33.68,36.2c-2.17,2.33-2.75,5.72-1.48,8.64c1.27,2.92,4.15,4.81,7.33,4.81h225.57    c11.1,0,20.13,9.03,20.13,20.13v1.37c0,11.1-9.03,20.13-20.13,20.13h-90.44c-64.03,0-116.13,52.1-116.13,116.13v5.27    c0,62.93,50.32,114.33,112.83,116.08l35.64,34.7c1.5,1.46,3.51,2.27,5.58,2.27c0.2,0,0.4-0.01,0.6-0.02    c2.29-0.17,4.39-1.32,5.78-3.15l25.6-33.75h89.07c25.22,0,53.88-38.51,57.07-42.9c0.99-1.36,1.53-3.01,1.53-4.7v-0.8    C406.347,365,405.807,363.35,404.817,361.99z M278.947,16c12.74,0.81,21.73,4.66,26.73,11.43c3.87,5.25,4.91,11.6,4.98,16.63    c-9.76-2.7-20.04-4.14-30.64-4.14h-131.11c2.86-8.79,2.12-17.11-0.04-23.92H278.947z M225.797,431.95l-17.33-16.87h30.13    L225.797,431.95z M188.777,399.08c-55.21,0-100.13-44.91-100.13-100.13v-5.27c0-55.21,44.92-100.13,100.13-100.13h90.44    c19.92,0,36.13-16.21,36.13-36.13v-1.37c0-19.93-16.21-36.13-36.13-36.13H72.027l26.48-28.47c2.96-3.18,2.84-8.14-0.27-11.17    l-24.94-24.36h206.72c54.77,0,99.33,44.56,99.33,99.33v2.17c0,55.21-44.92,100.13-100.13,100.13h-90.44    c-19.92,0-36.13,16.21-36.13,36.13v5.27c0,19.93,16.21,36.13,36.13,36.13h96.52c-1.86,3.8-3.68,8.32-5.07,13.45    c-3.34,12.37-4.59,30.37,5.37,50.55H188.777z M347.747,399.08h-43.8c-19.53-30.48-5.9-55.78-0.26-64h44.06    c11.66,0,29.91,18.15,40.86,32C377.657,380.94,359.407,399.08,347.747,399.08z"/>
	</g>
</g>















</svg>
