<?xml version="1.0" encoding="iso-8859-1"?>
<!-- Generator: Adobe Illustrator 19.0.0, SVG Export Plug-In . SVG Version: 6.00 Build 0)  -->
<svg xmlns="http://www.w3.org/2000/svg" xmlns:xlink="http://www.w3.org/1999/xlink" version="1.1" id="Layer_1" x="0px" y="0px" viewBox="0 0 485.701 485.701" style="enable-background:new 0 0 485.701 485.701;" xml:space="preserve" width="512" height="512">
<g>
	<path style="fill:#3EBD9E;" d="M316.153,386.232c-2.986-10.752-8.927-25.321-20.272-33.667l-9.315-6.854l9.698-6.3   c9.007-5.851,17.621-12.979,25.602-21.188l7.35-7.56l5.301,9.114c5.562,9.562,11.74,24.391,9.586,40.737   c-1.387,10.599-6.239,20.379-14.419,29.061l-9.733,10.331L316.153,386.232z"/>
	<path style="fill:#3EBD9E;" d="M129.478,292.537c2.795-71.151,92.479-129.804,119.899-146.085l6.963-4.134l38.722,67.056   l-11.902,1.541c-21.918,2.838-41.535,9.188-58.307,18.874c-21.214,12.252-52.495,38.549-81.635,68.629l-14.562,15.031   L129.478,292.537z"/>
	<path style="fill:#F4A026;" d="M84.149,444.468c-3.472-17.262-9.859-34.025-18.985-49.826   c-8.817-15.28-19.719-28.816-32.405-40.235l7.219-13.725c14.766,3.543,27.869,8.709,37.634,12.814   c2.582,1.095,5.295,1.645,8.09,1.645c6.893,0,13.301-3.394,17.141-9.078c22.869-33.829,83.659-94.128,122.007-116.279   c23.642-13.641,52.479-20.571,85.714-20.603c21.445-0.019,42.674-5.785,61.394-16.675l59.169-34.429l9.882,12.362l-53.17,57.19   c-13.296,14.303-25.139,30.665-35.198,48.631c-16.926,30.238-37.907,52.73-62.36,66.85   c-37.909,21.879-122.209,44.817-162.073,47.553c-9.593,0.656-17.412,7.808-19.018,17.39c-2.251,13.433-5.416,25.714-9.672,37.547   l-9.714,26.998L84.149,444.468z"/>
	<path style="fill:#61ACD2;" d="M336.792,139.371c-11.028,0-20-8.972-20-20s8.972-20,20-20s20,8.972,20,20   S347.82,139.371,336.792,139.371z"/>
	<path style="fill:#61ACD2;" d="M399.462,67.031c-15.07,0-27.33-12.26-27.33-27.33s12.26-27.33,27.33-27.33s27.33,12.26,27.33,27.33   S414.532,67.031,399.462,67.031z"/>
	<g>
		<circle cx="291.908" cy="245.17" r="8"/>
		<path d="M483.952,125.981c-2.48-3.1-6.85-3.91-10.27-1.92l-105.75,61.53c-17.5,10.18-37.34,15.58-57.37,15.59    c-3.71,0.01-7.36,0.11-10.97,0.28c-0.15-0.39-36.26-63.03-36.26-63.03c-2.16-3.74-6.89-5.09-10.7-3.06    c-1.48,0.79-36.52,19.67-70.23,50.34c-20.02,18.21-35.36,36.81-45.6,55.28c-12.76,23.02-17.6,45.9-14.47,68.07    c-10.71,11.94-19.83,23.21-26.12,32.52c-2.35,3.48-6.28,5.56-10.51,5.56c-1.72,0-3.4-0.34-4.99-1.01    c-19.74-8.31-43.79-16.93-72.45-17.86c-3.65-0.09-6.93,2.26-7.95,5.78c-1.01,3.52,0.49,7.28,3.66,9.13    c44.69,26.11,74.89,78.43,75.17,130.2c0.02,3.66,2.52,6.84,6.07,7.72c0.64,0.16,1.29,0.23,1.93,0.23c2.9,0,5.64-1.58,7.05-4.22    c11.47-21.45,18.75-42.97,22.89-67.73c0.99-5.92,5.79-10.34,11.67-10.74c38.29-2.62,113.1-22.36,155.46-43.26    c22.14,7.53,26.59,44.22,26.63,44.58c0.32,2.83,2.12,5.29,4.73,6.44c1.03,0.45,2.13,0.68,3.22,0.68c1.67,0,3.32-0.52,4.72-1.54    c16.69-12.16,26.29-26.96,28.53-43.99c2.93-22.28-7.81-41.83-13.37-50.23c7.54-9.31,14.54-19.7,20.95-31.16    c9.75-17.41,21.21-33.25,34.08-47.09l89.86-96.65C486.262,133.521,486.422,129.081,483.952,125.981z M253.462,153.331l28.67,49.65    c-22.94,2.97-43.48,9.6-61.28,19.88c-23.93,13.82-56.41,42.15-83.38,69.99C140.122,225.391,228.182,168.341,253.462,153.331z     M336.172,359.471c-1.17,8.94-5.3,17.18-12.31,24.62c-3.28-11.81-10-28.23-23.24-37.97c9.56-6.21,18.56-13.66,26.98-22.32    C332.092,331.521,338.082,344.971,336.172,359.471z M381.982,222.181c-13.73,14.77-25.95,31.65-36.32,50.17    c-16.21,28.96-36.19,50.44-59.38,63.83c-37.06,21.39-119.57,43.82-158.62,46.5c-13.3,0.91-24.14,10.8-26.36,24.05    c-2.15,12.83-5.19,24.71-9.31,36.16c-3.62-18-10.33-35.68-19.9-52.25c-9.25-16.03-20.76-30.28-33.98-42.18    c13.46,3.23,25.6,7.87,36.4,12.41c3.56,1.51,7.33,2.27,11.19,2.27c9.55,0,18.44-4.71,23.77-12.6    c22.41-33.15,81.9-92.18,119.38-113.83c22.41-12.93,49.9-19.5,81.72-19.53c22.85-0.02,45.47-6.16,65.41-17.76l59.17-34.43    L381.982,222.181z"/>
		<path d="M336.792,91.371c-15.44,0-28,12.56-28,28s12.56,28,28,28s28-12.56,28-28S352.232,91.371,336.792,91.371z M336.792,131.371    c-6.61,0-12-5.39-12-12c0-6.62,5.39-12,12-12c6.62,0,12,5.38,12,12C348.792,125.981,343.412,131.371,336.792,131.371z"/>
		<path d="M399.462,4.371c-19.48,0-35.33,15.85-35.33,35.33s15.85,35.33,35.33,35.33c19.48,0,35.33-15.85,35.33-35.33    S418.942,4.371,399.462,4.371z M399.462,59.031c-10.66,0-19.33-8.67-19.33-19.33c0-10.66,8.67-19.33,19.33-19.33    c10.66,0,19.33,8.67,19.33,19.33C418.792,50.361,410.122,59.031,399.462,59.031z"/>
		<path d="M248.018,279.836l-98.734,57.004c-3.826,2.209-5.137,7.102-2.928,10.928c1.482,2.566,4.171,4.001,6.936,4.001    c1.357,0,2.733-0.346,3.993-1.073l98.734-57.004c3.826-2.209,5.137-7.102,2.928-10.928    C256.737,278.938,251.845,277.628,248.018,279.836z"/>
	</g>
</g>















</svg>
