<?xml version="1.0" encoding="iso-8859-1"?>
<!-- Generator: Adobe Illustrator 19.0.0, SVG Export Plug-In . SVG Version: 6.00 Build 0)  -->
<svg xmlns="http://www.w3.org/2000/svg" xmlns:xlink="http://www.w3.org/1999/xlink" version="1.1" id="Layer_1" x="0px" y="0px" viewBox="0 0 481.449 481.449" style="enable-background:new 0 0 481.449 481.449;" xml:space="preserve" width="512" height="512">
<g>
	<path style="fill:#E46A53;" d="M277.89,374.014c-5.34,0-10.075-2.989-12.357-7.802c-2.304-4.823-1.562-10.596,1.901-14.687   l0.12-0.143l0.127-0.136c3.231-3.477,20.076-22.018,34.424-45.734l1.824-3.017l3.458-0.688c2.543-0.507,5.103-1.109,7.609-1.793   c17.898-4.88,34.653-9.855,49.796-14.787l25.957-8.454l-17.288,21.127c-36.262,44.314-84.075,71.65-89.408,74.621l-0.331,0.185   l-0.347,0.152C281.629,373.626,279.784,374.014,277.89,374.014z"/>
	<path style="fill:#E46A53;" d="M205.05,346.455c-5.435,0-10.183-3.776-12.529-6.028c-14.052-13.517-31.626-47.834-32.951-55.378   c-0.433-2.523-0.71-4.985-0.83-7.35l-0.72-14.245l12.531,6.813c4.564,2.481,8.798,4.687,12.942,6.74   c21.084,10.484,41.357,18.035,60.264,22.446l14.003,3.268l-10.158,10.176c-18.088,18.118-33.101,29.391-35.926,31.466l-0.355,0.262   l-0.382,0.22C209.086,345.913,207.105,346.455,205.05,346.455z"/>
	<path style="fill:#E46A53;" d="M158.704,170.142c-16.306-13.791-20.792-28.057-13.715-43.611   c3.942-8.705,13.478-19.097,36.481-19.097c7.981,0,15.013,1.297,18.494,2.07c2.758,0.626,5.616,1.235,8.659,1.884l0.853,0.182   c14.662,3.141,34.744,7.442,64.014,16.815l-1.95,15.604c-15.383,0.941-30.719,3.83-45.582,8.585l-41.033,13.109   c0.001,0-17.835,5.714-18.565,5.952l-4.243,1.388L158.704,170.142z"/>
	<path style="fill:#F4A026;" d="M282.706,304.152c-25.003,0-53.017-6.661-83.263-19.8l3.188-15.338h-34.19l-1.822-1.021   c-28.582-16.023-47.793-31.319-48.597-31.963l-0.789-0.301l-0.711-0.46c-8.071-5.227-12.891-14.413-12.891-24.575v-2.12   c0-9.585,4.408-18.485,11.791-23.809l2.284-1.646l2.813,0.146c0.569,0.03,1.146,0.044,1.73,0.044   c11.025,0,25.32-5.061,36.808-9.128c3.351-1.182,6.484-2.287,9.222-3.165l57.676-18.442c18.524-5.923,37.654-8.927,56.857-8.927   c19.969,0,39.818,3.243,58.999,9.639l105.66,35.219c7.309,2.433,13.729,6.542,18.562,11.882c6.594,7.305,8.808,14.856,6.587,22.452   c-7.212,24.65-60.244,50.615-157.623,77.174C304.926,302.76,294.063,304.152,282.706,304.152z"/>
	<path style="fill:#E46A53;" d="M16.773,269.401C11.771,268.766,8,264.22,8,258.824c0-4.114,2.167-7.817,5.558-9.563   c1.699-0.966,28.067-16.189,48.652-39.626c-20.665-23.528-47.039-38.711-48.617-39.605C10.183,168.262,8,164.543,8,160.444   c0-5.395,3.771-9.941,8.773-10.576l0.795-0.101l0.799,0.059c5.09,0.374,50.863,4.319,90.195,27.269l8.266,4.823l-6.213,7.28   c-4.504,5.278-6.984,12.159-6.984,19.376v2.12c0,7.218,2.48,14.099,6.984,19.377l6.213,7.28l-8.266,4.823   c-39.31,22.937-85.102,26.893-90.193,27.269l-0.8,0.059L16.773,269.401z"/>
	<g>
		<path d="M471.96,195.024c-5.75-6.36-13.34-11.24-21.96-14.11l-105.66-35.22c-0.63-0.21-1.26-0.41-1.89-0.61    c-70.06-28.25-106.83-36.11-131.48-41.37c-3.28-0.7-6.34-1.36-9.23-2.01c-3.77-0.84-11.41-2.27-20.27-2.27    c-21.58,0-36.72,8.23-43.78,23.8c-7.51,16.55-4.4,32.2,9.19,46.7c-9.26,3.07-19.21,5.81-26.15,5.33    c-44.74-29.85-100-33.32-102.36-33.45c-0.15-0.01-0.3-0.01-0.45-0.01c-9.88,0-17.92,8.36-17.92,18.64    c0,7.17,3.96,13.71,10.21,16.84c1.72,0.99,22.75,13.35,41.12,32.35c-18.23,18.86-39.11,31.19-41.08,32.34    C4.01,245.034,0,251.604,0,258.824c0,10.28,8.04,18.65,17.92,18.65c0.15,0,0.3-0.01,0.45-0.02c2.31-0.13,55.21-3.45,99.39-31.52    c6.16,4.63,17.9,13.07,33.45,22.44c-0.85,5.19-0.69,11.21,0.47,18c1.68,9.74,20.37,45.46,35.29,59.81    c5.62,5.41,11.87,8.27,18.08,8.27c3.79,0,7.38-1.06,10.67-3.16c0.12-0.08,0.24-0.16,0.35-0.24c0.91-0.65,21.4-15.46,44.77-40.33    c7.36,0.98,14.54,1.49,21.51,1.49c2.03,0,4.04-0.06,6.04-0.14c-12.43,18.34-24.92,31.95-26.61,33.77    c-0.06,0.06-0.19,0.2-0.25,0.27c-5.65,6.51-6.92,15.74-3.22,23.54c3.57,7.51,11.26,12.36,19.58,12.36c3.23,0,6.36-0.71,9.3-2.1    c0.13-0.06,0.25-0.13,0.38-0.2c2.78-1.5,67.44-37,106.41-96.16c8.84-3.29,17.01-6.56,24.44-9.81c36.76-16.08,57-32,61.87-48.66    C482.4,217.894,482.66,206.844,471.96,195.024z M152.27,129.844c4.33-9.56,14.16-14.41,29.2-14.41c7.58,0,14.24,1.32,16.76,1.88    c2.95,0.67,6.06,1.33,9.39,2.04c14.94,3.2,34.42,7.36,63.43,16.65c-16,0.98-31.93,3.96-47.53,8.95l-41.03,13.11    c0,0-17.95,5.75-18.62,5.97C146.62,149.444,148.48,138.174,152.27,129.844z M104.53,235.264c-38.03,22.19-82.54,25.89-86.75,26.2    c-0.87-0.11-1.78-1.16-1.78-2.64c0-1.3,0.69-2.21,1.28-2.48c0.24-0.11,28.78-16.2,50.94-41.43c2.65-3.02,2.65-7.54,0-10.56    c-22.31-25.4-50.73-41.33-50.89-41.4c-0.64-0.3-1.33-1.21-1.33-2.51c0-1.48,0.91-2.53,1.78-2.64c4.21,0.31,48.72,4.01,86.75,26.2    c-5.65,6.62-8.9,15.31-8.9,24.57v2.12C95.63,219.954,98.88,228.644,104.53,235.264z M206.94,337.914    c-0.64,0.37-1.22,0.54-1.89,0.54c-1.9,0-4.51-1.42-6.99-3.8c-13.14-12.64-29.62-45.35-30.61-50.99c-0.39-2.27-0.62-4.4-0.72-6.37    c4.23,2.3,8.63,4.61,13.21,6.88c21.8,10.84,42.5,18.52,62,23.07C223.88,325.334,208.82,336.534,206.94,337.914z M280.16,365.534    c-0.73,0.32-1.49,0.48-2.27,0.48c-2.22,0-4.19-1.25-5.13-3.23c-0.96-2.01-0.65-4.4,0.78-6.09c3.57-3.84,20.74-22.79,35.41-47.04    c2.76-0.55,5.47-1.19,8.15-1.92c18.19-4.96,34.94-9.94,50.17-14.9C331.56,336.474,283.73,363.544,280.16,365.534z M464.94,220.594    c-3.59,12.27-28.12,37.9-152.05,71.7c-35.92,9.8-76.12-0.45-110.26-15.28h55.54c13.69,0,24.83-11.14,24.83-24.83v-2.34    c0-13.69-11.14-24.83-24.83-24.83h-29.34c-4.87,0-8.83-3.96-8.83-8.83v-0.34c0-4.87,3.96-8.83,8.83-8.83H329c4.41,0,8-3.58,8-8    s-3.59-8-8-8H228.83c-13.69,0-24.83,11.14-24.83,24.83v0.34c0,13.69,11.14,24.83,24.83,24.83h29.34c4.87,0,8.83,3.96,8.83,8.83    v2.34c0,4.87-3.96,8.83-8.83,8.83h-87.64c-28.06-15.73-47.06-30.87-47.51-31.23c-0.66-0.53-1.39-0.94-2.15-1.23    c-5.73-3.71-9.24-10.44-9.24-17.86v-2.12c0-7.08,3.2-13.52,8.47-17.32c12.82,0.67,28.63-4.93,41.65-9.54    c3.26-1.15,6.35-2.24,8.97-3.08l57.67-18.44c36.34-11.62,74.69-11.39,110.89,0.68l105.66,35.22c6.01,2,11.25,5.34,15.16,9.66    C466.31,212.634,465.84,217.514,464.94,220.594z"/>
		<circle cx="391.08" cy="201.503" r="8"/>
	</g>
</g>















</svg>
