<?xml version="1.0" encoding="iso-8859-1"?>
<!-- Generator: Adobe Illustrator 19.0.0, SVG Export Plug-In . SVG Version: 6.00 Build 0)  -->
<svg xmlns="http://www.w3.org/2000/svg" xmlns:xlink="http://www.w3.org/1999/xlink" version="1.1" id="Layer_1" x="0px" y="0px" viewBox="0 0 388.987 388.987" style="enable-background:new 0 0 388.987 388.987;" xml:space="preserve" width="512" height="512">
<g>
	<polygon style="fill:#F4A026;" points="12.366,249.224 12.366,122.808 75.714,202.171 60.636,225.295 45.018,249.224  "/>
	<path style="fill:#E46A53;" d="M8.002,305.953l87.573-134.202L28.475,83.033h166.551c62.81,0,121.812,33.504,153.996,87.441   l0.058,0.088c11.172,16.631,22.934,34.186,22.934,34.186c8.023,12.856,10.642,24.609,8.004,35.93   c-5.155,22.029-29.536,37.107-47.338,48.116c-14.646,9.054-29.161,17.159-46.094,17.159H8.002z M140.04,170.204l-64.835,99.351   l191.271-0.001c11.92-0.082,22.081-9.271,23.58-21.374l2.58-20.83c4.416-35.618-10.645-70.356-39.305-90.658   c-16.386-11.614-35.457-17.259-58.306-17.259h-93.391L140.04,170.204z"/>
	<path style="fill:#F4A026;" d="M181.959,269.554H75.203l64.834-99.353l-38.404-50.769h93.394c23.165,0,41.691,5.482,58.305,17.253   c28.656,20.306,43.717,55.045,39.305,90.661l-2.58,20.83c-0.481,3.94-1.951,7.771-4.248,11.063l-7.291,10.313h-96.552H181.959z"/>
	<g>
		<circle cx="334.528" cy="205.827" r="8"/>
		<path d="M378.796,200.513c-0.55-0.89-16.16-24.13-22.99-34.28c-16.58-27.73-40.18-50.81-68.26-66.76    c-28.15-15.99-60.14-24.44-92.52-24.44H28.476c-3.04,0-5.81,1.72-7.17,4.44c-1.35,2.72-1.04,5.97,0.79,8.39l63.71,84.22    l-10.74,16.45l-56.45-70.72c-2.12-2.65-5.69-3.68-8.89-2.56c-3.21,1.12-5.36,4.15-5.36,7.55v126.42c0,4.42,3.58,8,8,8h17.88    l-28.94,44.35c-1.61,2.46-1.74,5.6-0.34,8.19c1.4,2.58,4.1,4.19,7.04,4.19h278.58c19.02,0,35.26-9.06,50.26-18.33    c17.94-11.09,45.05-27.84,50.96-53.12C390.916,229.193,387.875,215.064,378.796,200.513z M20.366,241.223v-95.57l45.49,56.99    l-7.85,12.04l-12.08-6.71c-3.86-2.15-8.73-0.76-10.88,3.11c-2.14,3.86-0.75,8.73,3.11,10.87l11.08,6.16l-8.55,13.11H20.366z     M372.226,238.864c-4.4,18.8-27.17,32.87-43.79,43.15c-13.59,8.4-27.02,15.94-41.85,15.94H22.776l79.5-121.83    c1.84-2.83,1.72-6.51-0.32-9.2l-57.4-75.89h150.47c60.02,0,116.41,32.03,147.15,83.58c0.07,0.12,0.15,0.24,0.23,0.36    c8.78,13.07,22.12,32.93,22.82,34.01C372.066,219.943,374.355,229.723,372.226,238.864z"/>
		<path d="M257.956,130.163c-17.79-12.61-38.37-18.73-62.93-18.73h-93.39c-3.04,0-5.81,1.72-7.16,4.43    c-1.36,2.72-1.05,5.97,0.78,8.39l35.01,46.29l-61.76,94.64c-1.6,2.46-1.73,5.6-0.33,8.18c1.4,2.59,4.1,4.19,7.03,4.19h191.27    c15.98-0.11,29.53-12.32,31.52-28.39l2.58-20.83C305.355,189.783,289.026,152.173,257.956,130.163z M284.696,226.364l-2.58,20.83    c-0.34,2.78-1.37,5.32-2.87,7.47l-45.66-95.47c-1.91-3.98-6.68-5.67-10.67-3.76c-3.99,1.9-5.67,6.68-3.77,10.67l45.66,95.45h-28.9    l-36.44-76.2c-1.91-3.98-6.68-5.67-10.67-3.76c-3.99,1.9-5.67,6.68-3.76,10.66l33.14,69.3h-31.17l-23.94-50.04    c-1.9-3.98-6.67-5.67-10.66-3.77c-3.99,1.91-5.68,6.69-3.77,10.67l20.63,43.14h-79.29l56.76-86.98c1.85-2.83,1.72-6.51-0.32-9.2    l-28.7-37.94h77.31c21.43,0,38.48,5.01,53.68,15.78C274.956,161.814,288.746,193.673,284.696,226.364z"/>
	</g>
</g>















</svg>
