<?xml version="1.0" encoding="iso-8859-1"?>
<!-- Generator: Adobe Illustrator 19.0.0, SVG Export Plug-In . SVG Version: 6.00 Build 0)  -->
<svg xmlns="http://www.w3.org/2000/svg" xmlns:xlink="http://www.w3.org/1999/xlink" version="1.1" id="Layer_1" x="0px" y="0px" viewBox="0 0 470.302 470.302" style="enable-background:new 0 0 470.302 470.302;" xml:space="preserve" width="512" height="512">
<g>
	<path style="fill:#F4A026;" d="M245.707,443.313c5.164-24.969,5.277-50.317,0.336-75.34l-1.854-9.394l9.573-0.155   c8.501-0.138,16.945-1.35,25.1-3.602l13.393-3.7l0.253-1.083l3.42-1.667c5.855-2.854,11.447-6.29,16.621-10.213l16.473-12.492   l-3.773,20.326c-7.833,42.198-32.275,80.634-67.06,105.453l-16.614,11.854L245.707,443.313z"/>
	<path style="fill:#3EBD9E;" d="M252.151,358.442c-13.068,0-25.785-2.492-37.799-7.406c-29.318-11.964-51.439-37.411-59.168-68.069   c-2.135-8.464-3.152-17.197-3.022-25.954c0.109-7.841,1.139-15.619,3.06-23.109c7.397-29.09,28.2-53.955,55.644-66.498   c12.215-5.579,25.221-8.584,38.659-8.932c0.886-0.021,1.741-0.032,2.607-0.032c27.605,0,54.234,11.562,73.078,31.726l2.451,2.152   v0.372l0.005,0.005v0.093c18.918,19.954,40.58,37.8,64.43,53.076l8.376,5.357c4.177,2.657,6.68,7.21,6.68,12.169v0.16   c0,4.951-2.475,9.485-6.62,12.126l-36.72,23.252c-13.442,8.492-41.845,31.218-44.233,33.354   C301.144,349.146,277.191,358.442,252.151,358.442z"/>
	<path style="fill:#F4A026;" d="M306.619,174.625c-16.326-10.586-35.168-16.182-54.487-16.182c-0.875,0-1.749,0.009-2.643,0.028   c-7.384,0.192-14.779,1.217-21.94,3.043l-15.499,3.955l6.132-14.773c14.964-36.049,20.018-75.551,14.616-114.236l-3.902-27.948   l17.99,21.742c32.963,39.839,57.107,85.397,71.763,135.41l6.064,20.694L306.619,174.625z"/>
	<path style="fill:#F4A026;" d="M67.879,303.516c6.644-14.271,19.993-32.919,30.275-45.071   c-5.178-10.643-16.399-35.654-21.767-54.187l-5.534-19.106l84.226,48.682l-1.096,5.604c-1.125,5.758-1.739,11.672-1.822,17.578   c-0.092,6.613,0.462,13.215,1.647,19.621l1.187,6.411l-95.708,38.927L67.879,303.516z"/>
	<g>
		<circle cx="331.485" cy="246.442" r="8"/>
		<circle cx="186.151" cy="230.442" r="8"/>
		<circle cx="219.151" cy="237.442" r="8"/>
		<circle cx="249.161" cy="202.442" r="8"/>
		<circle cx="241.151" cy="264.442" r="8"/>
		<circle cx="209.151" cy="311.442" r="8"/>
		<circle cx="239.151" cy="302.442" r="8"/>
		<circle cx="202.151" cy="274.442" r="8"/>
		<path d="M404.741,244.462l-8.33-5.34c-23.86-15.28-45.45-33.17-64.2-53.19c-20.31-87.98-65.24-148.27-99.58-183.51    c-2.55-2.62-6.54-3.18-9.71-1.36c-3.17,1.82-4.7,5.55-3.73,9.07c14.07,50.95,8.77,104.6-14.84,151.53    c-24.92,12.41-44.38,34.34-53.81,60.32l-73.39-42.43c-2.47-1.43-5.52-1.43-8,0c-2.47,1.43-4,4.07-4,6.93    c0,18.78,17.09,56.96,23.59,70.8c-9.39,11.64-33.59,43.53-33.59,63.12c0,2.66,1.32,5.15,3.53,6.64c1.34,0.9,2.9,1.36,4.47,1.36    c1.02,0,2.04-0.19,3.01-0.59l83.89-34.12c10.08,29.16,32.46,52.99,61.28,64.75c8.39,3.44,17.1,5.77,26.02,6.99    c6.91,31.29,5.48,63.81-4.22,94.45c-0.99,3.11,0.01,6.5,2.52,8.58c1.47,1.22,3.28,1.84,5.1,1.84c1.3,0,2.6-0.31,3.79-0.96    c51.69-27.8,86.19-80.97,90.91-139.56c9.84-7.74,24.19-18.76,32.63-24.09l36.74-23.26c6.47-4.14,10.33-11.2,10.33-18.88v-0.16    C415.151,255.652,411.241,248.572,404.741,244.462z M145.941,278.092l-70.81,28.8c6.55-14.07,19.83-32.29,29.13-43.28    c2.05-2.42,2.48-5.82,1.09-8.68c-5.02-10.3-16.02-34.74-21.28-52.9l62.06,35.87c-1.22,6.24-1.88,12.6-1.97,19    C144.061,264.022,144.651,271.122,145.941,278.092z M240.721,35.352c25.7,31.06,53.36,74.92,70.25,132.56    c-17.38-11.27-37.84-17.47-58.84-17.47c-0.93,0-1.86,0.01-2.81,0.03c-8.09,0.21-16.03,1.32-23.75,3.29    C241.141,116.252,246.331,75.522,240.721,35.352z M253.541,444.932c5.35-25.87,5.48-52.53,0.35-78.51    c9.25-0.15,18.34-1.47,27.1-3.89c-2.58,8.36-5.84,16.51-9.77,24.34c-1.98,3.95-0.39,8.76,3.56,10.74    c1.15,0.58,2.38,0.85,3.58,0.85c2.93,0,5.76-1.62,7.16-4.41c6.14-12.25,10.8-25.18,13.91-38.49c6.3-3.07,12.32-6.76,17.95-11.03    C309.891,384.882,286.841,421.172,253.541,444.932z M399.151,263.552c0,2.2-1.1,4.22-2.92,5.38l-36.7,23.24    c-13.93,8.8-43.2,32.25-45.33,34.19c-16.98,15.53-39.02,24.08-62.05,24.08c-12.03,0-23.72-2.29-34.77-6.81    c-26.98-11.01-47.33-34.42-54.44-62.62c-1.96-7.77-2.9-15.81-2.78-23.88c0.1-7.2,1.04-14.34,2.81-21.24    c6.81-26.78,25.95-49.66,51.22-61.21c11.21-5.12,23.17-7.89,35.54-8.21c0.81-0.02,1.6-0.03,2.4-0.03    c25.43,0,49.97,10.67,67.31,29.27c0.07,0.08,0.14,0.16,0.22,0.23c0,0.01,0.01,0.01,0.01,0.02c19.86,21.35,42.77,40.41,68.11,56.64    l8.38,5.36c1.87,1.19,2.99,3.22,2.99,5.43V263.552z"/>
	</g>
</g>















</svg>
