<?xml version="1.0" encoding="iso-8859-1"?>
<!-- Generator: Adobe Illustrator 19.0.0, SVG Export Plug-In . SVG Version: 6.00 Build 0)  -->
<svg xmlns="http://www.w3.org/2000/svg" xmlns:xlink="http://www.w3.org/1999/xlink" version="1.1" id="Layer_1" x="0px" y="0px" viewBox="0 0 480 480" style="enable-background:new 0 0 480 480;" xml:space="preserve" width="512" height="512">
<g>
	<path style="fill:#61ACD2;" d="M361.338,221.634c-6.314-2.526-12.952-4.697-19.727-6.454c-1.829-0.474-5.495-1.356-7.345-1.743   c-1.886-0.395-5.679-1.068-7.581-1.373c-5.679-0.913-11.442-1.495-17.124-1.85c-1.89-0.118-5.653-0.243-7.547-0.261   c-1.925-0.018-5.788,0.04-7.711,0.127c-4.042,0.182-8.083,0.481-12.013,0.896c-1.552,0.164-4.712,0.577-6.255,0.812   c-2.299,0.351-6.807,1.174-9.084,1.652c-2.622,0.551-4.905,1.09-6.982,1.629l-0.065,0.017l-25.075,8.196l-20.699-51.271   c-8.835-21.493-6.072-51.315,16.344-66.64c5.945-4.058,13.943-5.865,25.938-5.865c6.56,0,13.751,0.54,20.706,1.063   c7.803,0.589,15.868,1.197,23.941,1.197c7.337-0.009,14.605-1.126,21.635-2.207c6.636-1.013,12.891-1.968,18.69-1.968   c5.062,0,9.195,0.758,12.637,2.317c24.028,10.944,36.738,38.508,30.236,65.548l-14.332,59.613L361.338,221.634z"/>
	<path style="fill:#61ACD2;" d="M165.869,366.087c-6.845-15.794-14.803-32.238-20.274-43.252l-8.09-16.286l100.913,29.11   l-0.46,15.491c-21.159,4.764-41.94,11.216-61.765,19.18l-7.226,2.902L165.869,366.087z"/>
	<path style="fill:#E46A53;" d="M24.432,358.204c12.774-23.33,19.527-49.935,19.527-76.938c0-27.01-6.752-53.618-19.527-76.948   l-13.929-25.437l25,14.698c29.321,17.239,50.264,39.422,67.092,57.245c3.546,3.758,7.316,7.739,11.004,11.5l0.206,0.209   l0.189,0.224c0,0,105.768-34.553,141.023-46.071c3.189-1.264,8.815-2.574,10.637-2.974c11.393-2.501,23.085-3.766,34.834-3.766   c30.324,0,59.898,8.313,85.524,24.041l85.979,52.775l-71.936,34.477c-31.274,14.985-66.293,22.905-101.271,22.905   c-16.377,0-32.734-1.721-48.618-5.115l-0.275-0.059l-135.891-39.208l-0.165,0.19l-0.187,0.195   c-3.479,3.546-6.918,7.179-11.053,11.559c-16.881,17.87-37.823,40.037-67.095,57.236l-24.991,14.684L24.432,358.204z"/>
	<g>
		<circle cx="386.999" cy="278.763" r="8"/>
		<path d="M306.999,300.905c-2.047,0-4.095-0.781-5.657-2.343c-10.917-10.918-10.917-28.681,0-39.599    c3.124-3.123,8.189-3.123,11.313,0c3.125,3.125,3.125,8.189,0,11.314c-4.679,4.679-4.679,12.291,0,16.97    c3.125,3.125,3.125,8.189,0,11.314C311.094,300.124,309.046,300.905,306.999,300.905z"/>
		<path d="M245.999,300.905c-2.047,0-4.095-0.781-5.657-2.343c-10.917-10.918-10.917-28.681,0-39.599    c3.124-3.123,8.189-3.123,11.313,0c3.125,3.125,3.125,8.189,0,11.314c-4.679,4.679-4.679,12.291,0,16.97    c3.125,3.125,3.125,8.189,0,11.314C250.094,300.124,248.046,300.905,245.999,300.905z"/>
		<path d="M476.189,279.946l-85.99-52.78c-3.62-2.22-7.3-4.29-11.05-6.22l12.88-53.62c7.4-30.77-7.19-62.18-34.69-74.69    c-10.64-4.84-22.88-2.97-35.85-0.98c-6.77,1.03-13.76,2.1-20.35,2.11h-0.08c-7.75,0-15.68-0.6-23.34-1.17    c-19.8-1.49-38.5-2.89-51.76,6.17c-22.88,15.64-30.96,47.74-19.22,76.28l17.46,43.29l-107.92,35.27c-2.54-2.64-5.15-5.4-7.87-8.28    c-22.81-24.15-51.2-54.21-97.45-72.65c-3.39-1.36-7.28-0.24-9.43,2.72c-2.15,2.96-2.02,7,0.31,9.81    c45.42,54.76,45.42,137.35,0,192.11c-2.33,2.82-2.46,6.86-0.31,9.81c1.54,2.12,3.97,3.3,6.47,3.3c0.99,0,2-0.19,2.96-0.57    c46.25-18.45,74.64-48.5,97.45-72.66c2.76-2.92,5.42-5.73,8-8.41l15.37,4.43c9.33,18.17,21.58,43.4,29.76,63.17    c0.81,1.98,2.39,3.54,4.36,4.35c0.97,0.4,2,0.6,3.03,0.6c1.07,0,2.13-0.22,3.13-0.64c33.77-14.36,69.71-23.96,106.9-28.57    c4.02-0.49,14.61,0.02,19.8,0.02c36.07,0,72.06-8.03,104.75-23.69l71.95-34.48c2.64-1.26,4.38-3.87,4.53-6.8    C480.139,284.256,478.679,281.476,476.189,279.946z M221.549,169.016c-7.63-18.56-5.46-44.12,13.44-57.04    c8.63-5.89,24.61-4.7,41.53-3.43c7.96,0.6,16.19,1.22,24.54,1.22h0.09c7.8-0.01,15.41-1.17,22.76-2.3    c10.55-1.61,20.5-3.13,26.81-0.27c20.53,9.35,31.37,33.06,25.76,56.39l-12.17,50.62c-6.75-2.7-13.67-4.95-20.69-6.77l10.22-51.1    c0.87-4.34-1.94-8.55-6.27-9.42c-4.33-0.86-8.55,1.95-9.41,6.28l-10.2,50.97c-5.95-0.96-11.94-1.61-17.96-1.94v-68.46    c0-4.42-3.58-8-8-8s-8,3.58-8,8v68.32c-4.21,0.16-8.41,0.47-12.6,0.94l-20.9-56.06c-1.55-4.14-6.16-6.24-10.29-4.7    c-4.15,1.54-6.25,6.15-4.71,10.29l19.79,53.06c-2.45,0.52-4.9,1.08-7.33,1.71c-0.16,0.04-0.33,0.09-0.49,0.14l-18.02,5.89    L221.549,169.016z M173.209,362.906c-6.08-14.03-13.57-29.78-20.45-43.63l83.44,24.07    C214.609,348.206,193.549,354.736,173.209,362.906z M396.599,314.026c-44.79,21.46-96.19,27.56-144.76,17.18l-135.62-39.13    c-3.1-0.9-6.3,0.18-8.28,2.47c-3.61,3.68-7.28,7.56-11.16,11.67c-16.9,17.89-37.01,39.19-65.33,55.83    c13.35-24.38,20.51-52.21,20.51-80.78c0-28.58-7.16-56.41-20.51-80.79c28.32,16.65,48.43,37.94,65.33,55.84    c3.86,4.09,7.52,7.95,11.11,11.61c2.04,2.41,5.41,3.48,8.59,2.44l145.72-47.61c40.45-10.37,84.03-3.8,119.63,18.05l73.46,45.09    L396.599,314.026z"/>
	</g>
</g>















</svg>
