<?xml version="1.0" encoding="iso-8859-1"?>
<!-- Generator: Adobe Illustrator 19.0.0, SVG Export Plug-In . SVG Version: 6.00 Build 0)  -->
<svg xmlns="http://www.w3.org/2000/svg" xmlns:xlink="http://www.w3.org/1999/xlink" version="1.1" id="Layer_1" x="0px" y="0px" viewBox="0 0 441.38 441.38" style="enable-background:new 0 0 441.38 441.38;" xml:space="preserve" width="512" height="512">
<g>
	<path style="fill:#E46A53;" d="M154.353,416.859c1.782-7.761,5.599-14.751,11.038-20.214c7.504-7.542,17.555-11.696,28.299-11.696   c0.608,0,1.216,0.011,1.824,0.04H208.1c0.138,0,0.282,0.003,0.43,0.01h37.052l0.194-0.005c0.639-0.029,1.276-0.043,1.91-0.043   c10.758,0,20.812,4.155,28.309,11.7c5.437,5.461,9.254,12.452,11.033,20.211l3.056,13.327l-13.115-3.865   c-18.243-5.377-37.178-8.104-56.278-8.104s-38.035,2.727-56.278,8.104l-13.121,3.867L154.353,416.859z"/>
	<path style="fill:#F4A026;" d="M208.36,385c-8.365,0-15.17-6.805-15.17-15.17v-14.66c0-8.365,6.805-15.17,15.17-15.17h24.66   c8.365,0,15.17,6.805,15.17,15.17v14.66c0,8.365-6.805,15.17-15.17,15.17H208.36z"/>
	<path style="fill:#F4A026;" d="M208.36,340c-8.365,0-15.17-6.805-15.17-15.17v-14.66c0-8.365,6.805-15.17,15.17-15.17h24.66   c8.365,0,15.17,6.805,15.17,15.17v14.66c0,8.365-6.805,15.17-15.17,15.17H208.36z"/>
	<path style="fill:#E46A53;" d="M377.19,131c-26.787,0-49.912-19.13-54.986-45.488L320.373,76h57.817V18.183l9.512,1.831   C414.06,25.088,433.19,48.213,433.19,75C433.19,105.878,408.068,131,377.19,131z"/>
	<path style="fill:#F4A026;" d="M339.88,188.85c-3.543,0-6.858-1.379-9.336-3.883l-9.637-9.627c-2.499-2.524-3.856-5.823-3.856-9.32   c0-3.492,1.358-6.787,3.825-9.278l31.343-31.333l4.85,1.862c6.443,2.474,13.213,3.729,20.123,3.729c0.259,0,0.516-0.01,0.772-0.018   c0.258-0.008,0.515-0.017,0.771-0.021l5.011-0.092l2.269,4.469c2.579,5.079,1.618,11.2-2.39,15.231l-34.438,34.428   C346.738,187.471,343.423,188.85,339.88,188.85z"/>
	<path style="fill:#F4A026;" d="M263.19,200v-40h53.26l0.667,7.27c0.282,3.078,1.593,5.866,3.79,8.063l9.663,9.673   c0.193,0.193,0.464,0.428,0.81,0.72l11.77,9.932l-14.894,3.919c-1.068,0.281-2.157,0.423-3.236,0.423H263.19z"/>
	<path style="fill:#E46A53;" d="M210.69,295c-17.92,0-32.5-14.58-32.5-32.5v-100c0-17.92,14.58-32.5,32.5-32.5h20   c17.92,0,32.5,14.58,32.5,32.5v100c0,17.92-14.58,32.5-32.5,32.5H210.69z"/>
	<path style="fill:#F4A026;" d="M116.36,199.97c-1.007,0-2.002-0.12-3.041-0.365l-15.448-3.653l12.126-10.244   c0.351-0.296,0.611-0.531,0.819-0.739l9.656-9.656c2.197-2.197,3.507-4.989,3.79-8.074l0.667-7.27h53.26v40H116.36z"/>
	<path style="fill:#F4A026;" d="M101.5,188.83c-3.518,0-6.824-1.369-9.308-3.855l-34.418-34.418   c-4.018-4.016-4.988-10.138-2.414-15.233l2.307-4.566l5.113,0.178c0.518,0.018,0.961,0.035,1.411,0.035   c6.932,0,13.699-1.253,20.114-3.725l4.854-1.871l31.318,31.319c2.484,2.483,3.854,5.789,3.854,9.307s-1.369,6.824-3.855,9.308   l-9.668,9.668C108.324,187.461,105.018,188.83,101.5,188.83z"/>
	<path style="fill:#E46A53;" d="M64.19,130.97c-30.878,0-56-25.122-56-56c0-26.787,19.13-49.912,45.488-54.986l9.512-1.831V75.97   h57.817l-1.831,9.512C114.102,111.84,90.977,130.97,64.19,130.97z"/>
	<g>
		<path d="M441.19,75c0-16.9-6.53-32.83-18.37-44.87c-11.84-12.02-27.63-18.81-44.49-19.1l-8.14-0.15V68h-57.12l0.15,8.14    c0.29,16.85,7.08,32.65,19.1,44.49c2.28,2.23,4.69,4.28,7.22,6.13l-24.29,24.3c-0.3,0.3-0.57,0.62-0.85,0.94h-44.6    c-3.32-12.37-12.37-22.41-24.11-27.11V64.5c0-26.74,21.76-48.5,48.5-48.5h24.5V0h-24.5c-35.57,0-64.5,28.93-64.5,64.5V122h-18    V64.5c0-35.57-28.93-64.5-64.5-64.5h-24.5v16h24.5c26.74,0,48.5,21.76,48.5,48.5v60.39c-11.74,4.7-20.78,14.73-24.1,27.08h-44.61    c-0.28-0.31-0.55-0.64-0.85-0.94l-24.29-24.29c2.53-1.85,4.94-3.9,7.22-6.14c12.02-11.83,18.81-27.63,19.1-44.49l0.15-8.14H71.19    V10.86L63.05,11c-16.86,0.3-32.65,7.08-44.49,19.1C6.72,42.14,0.19,58.08,0.19,74.97c0,29.16,19.61,53.81,46.32,61.5    c-1.59,6.88,0.26,14.4,5.61,19.75l34.41,34.41c3.06,3.05,6.88,5.05,11.03,5.83c3.51,6.82,10.6,11.51,18.8,11.51h53.83v18.53h-21.6    c-20.13,0-39.05,7.84-53.28,22.07l-11.78,11.77l11.32,11.32l11.77-11.78c11.21-11.21,26.11-17.38,41.97-17.38h21.6v20    c0,1.01,0.05,2.01,0.12,3h-17.22c-20.13,0-39.05,7.84-53.28,22.07l-11.78,11.77l11.32,11.32l11.77-11.78    c11.21-11.21,26.11-17.38,41.97-17.38h21.85c3.37,6.32,8.37,11.64,14.43,15.41c-2.63,3.76-4.18,8.33-4.18,13.26v14.66    c0,5.8,2.15,11.1,5.68,15.17c-3.53,4.07-5.68,9.37-5.68,15.17v14.66c0,2.68,0.46,5.25,1.3,7.65c-10.14,1.5-19.46,6.17-26.78,13.53    c-9.44,9.49-14.6,22.47-14.52,36.49v13.88l10.71-3.85c20.84-7.51,42.64-11.31,64.79-11.31c22.15,0,43.95,3.8,64.79,11.31    l10.71,3.85v-13.84c0.08-14.06-5.08-27.04-14.52-36.53c-7.32-7.36-16.63-12.02-26.79-13.52c0.85-2.4,1.31-4.97,1.31-7.66v-14.66    c0-5.8-2.15-11.1-5.68-15.17c3.53-4.07,5.68-9.37,5.68-15.17v-14.66c0-4.93-1.55-9.5-4.18-13.26c6.06-3.77,11.06-9.09,14.43-15.41    h20.35c15.86,0,30.76,6.17,41.97,17.38l11.77,11.78l11.32-11.32l-11.78-11.77c-14.23-14.23-33.15-22.07-53.28-22.07h-15.72    c0.07-0.99,0.12-1.99,0.12-3v-20h20.1c15.86,0,30.76,6.17,41.97,17.38l11.77,11.78l11.32-11.32l-11.78-11.77    c-14.23-14.23-33.15-22.07-53.28-22.07h-20.1V208h53.83c8.2,0,15.29-4.69,18.8-11.52c4.15-0.78,7.97-2.77,11.03-5.82l34.41-34.42    c5.35-5.35,7.2-12.87,5.61-19.74C421.58,128.8,441.19,104.16,441.19,75z M16.19,74.97c0-23.22,16.87-42.87,39-47.13v56.13h56.13    c-4.26,22.13-23.91,39-47.13,39C37.72,122.97,16.19,101.44,16.19,74.97z M105.15,179.32c-0.97,0.97-2.27,1.51-3.65,1.51    s-2.68-0.54-3.65-1.51L63.43,144.9c-1.61-1.61-1.91-4.03-0.93-5.97c0.56,0.02,1.12,0.04,1.69,0.04c7.98,0,15.75-1.47,22.99-4.26    l27.64,27.64c0.97,0.97,1.51,2.27,1.51,3.65s-0.54,2.68-1.51,3.65L105.15,179.32z M170.19,191.97h-53.83    c-0.42,0-0.82-0.06-1.2-0.15c0.45-0.38,0.89-0.77,1.31-1.19l9.66-9.66c3.53-3.53,5.65-8.09,6.1-13h37.96V191.97z M270.32,402.29    c4.43,4.45,7.47,10.08,8.91,16.36c-19-5.6-38.64-8.43-58.54-8.43c-19.9,0-39.54,2.83-58.54,8.43c1.44-6.27,4.48-11.91,8.91-16.36    c5.99-6.02,14.03-9.34,22.63-9.34c0.54,0,1.08,0.01,1.62,0.04h12.79c0.08,0,0.17,0.01,0.26,0.01h37.33l0.38-0.01    C255.31,392.55,263.96,395.89,270.32,402.29z M208.36,348h24.66c3.96,0,7.17,3.21,7.17,7.17v14.66c0,3.95-3.21,7.17-7.17,7.17    h-24.66c-3.96,0-7.17-3.22-7.17-7.17v-14.66C201.19,351.21,204.4,348,208.36,348z M201.19,324.83v-14.66    c0-3.96,3.21-7.17,7.17-7.17h24.66c3.96,0,7.17,3.21,7.17,7.17v14.66c0,3.95-3.21,7.17-7.17,7.17h-24.66    C204.4,332,201.19,328.78,201.19,324.83z M255.19,262.5c0,13.51-10.99,24.5-24.5,24.5h-20c-13.51,0-24.5-10.99-24.5-24.5v-100    c0-13.51,10.99-24.5,24.5-24.5h20c13.51,0,24.5,10.99,24.5,24.5V262.5z M325.02,192h-53.83v-24h37.96    c0.45,4.91,2.57,9.46,6.1,12.99l9.66,9.67c0.42,0.42,0.86,0.8,1.31,1.18C325.84,191.94,325.44,192,325.02,192z M377.95,144.93    l-34.42,34.41c-0.97,0.98-2.27,1.51-3.65,1.51s-2.68-0.53-3.65-1.51l-9.67-9.66c-0.97-0.98-1.51-2.28-1.51-3.66    s0.54-2.67,1.51-3.65l27.64-27.63c7.24,2.78,15.01,4.26,22.99,4.26c0.57,0,1.13-0.03,1.69-0.04    C379.86,140.89,379.56,143.31,377.95,144.93z M377.19,123c-23.22,0-42.87-16.87-47.13-39h56.13V27.87    c22.13,4.26,39,23.91,39,47.13C425.19,101.47,403.66,123,377.19,123z"/>
	</g>
</g>















</svg>
