<?xml version="1.0" encoding="iso-8859-1"?>
<!-- Generator: Adobe Illustrator 19.0.0, SVG Export Plug-In . SVG Version: 6.00 Build 0)  -->
<svg xmlns="http://www.w3.org/2000/svg" xmlns:xlink="http://www.w3.org/1999/xlink" version="1.1" id="Layer_1" x="0px" y="0px" viewBox="0 0 454.18 454.18" style="enable-background:new 0 0 454.18 454.18;" xml:space="preserve" width="512" height="512">
<g>
	<path style="fill:#F4A026;" d="M357.29,231.51c-9.451,0-18.763-1.483-27.675-4.409l-1.403-0.487   c-3.899-1.349-9.219-3.19-14.382-6.483c-25.342-14.259-42.159-39.932-45-68.726l-0.867-8.786h178.644l-0.864,8.783   c-2.147,21.823-12.308,42.029-28.611,56.896C400.716,223.266,379.465,231.51,357.29,231.51z"/>
	<path style="fill:#EFEFEF;" d="M217.99,354.45c-18.185,0-27-4.859-36.332-10.004c-8.933-4.915-18.168-9.996-36.328-9.996   c-3.357,0-6.619,0.184-9.696,0.545l-1.838,0.216l-1.746-0.613c-17.047-5.985-32.742-13.985-46.646-23.778   c-15.348-10.805-28.468-23.665-38.996-38.223l-12.247-16.934l20.424,4.428c6.49,1.407,13.223,2.121,20.012,2.121   c5.036,0,10.119-0.396,15.108-1.176c25.589-4.002,49.862-6.031,72.145-6.031c46.572,0,74.086,8.776,86.342,14.007   c5.939,2.529,12.286,3.868,18.35,3.868c0.736,0,1.481-0.027,2.218-0.062c8.41-0.443,13.699-2.72,15.672-6.765   c2.339-4.797-0.822-10.856-1.846-12.599l-0.006-0.011c-0.548-0.801-2.782-3.44-4.851-5.728l-91.796-103.25   c-9.006-10.125-13.912-22.807-13.822-35.726c-0.043-1.816,0.083-3.236,0.252-4.892c2.59-27.42,25.387-48.972,53.02-50.072   c0.755-0.03,1.511-0.045,2.264-0.045c13.459,0,26.437,4.868,36.542,13.708c20.092,17.559,43.978,27.834,69.07,29.714l89.288,6.66   c13.253,0.99,23.635,12.172,23.635,25.458v13.35H268.4c0,36.389,21.837,68.743,55.632,82.424l0.255,0.104l0.247,0.12   c20.963,10.214,33.986,31.056,33.986,54.392c0,26.604-16.979,49.789-42.251,57.695l-2.393,0.749l-2.392-0.751   c-2.958-0.928-5.936-1.609-9.102-2.08c-3.613-0.547-7.55-0.823-11.723-0.823c-18.159,0-27.395,5.082-36.326,9.996   C245.41,349.364,236.185,354.45,217.99,354.45z"/>
	<path style="fill:#E46A53;" d="M266.531,272.875c-6.063,0-12.405-1.337-18.338-3.866c-12.216-5.214-39.714-13.959-86.653-13.959   c-22.232,0-46.401,2.014-71.836,5.984c-5.02,0.784-10.123,1.182-15.165,1.182c-3.439,0-6.898-0.186-10.281-0.552l-1.583-15.571   c14.52-4.66,28.851-12.02,42.599-21.877l0.227-0.173c1.202-0.887,29.968-21.726,75.38-21.726c23.195,0,46.723,5.426,69.93,16.128   l1.518,0.7l29.72,33.434l0.352,0.56c0.783,1.244,4.561,7.711,2.035,12.908c-1.972,4.051-7.266,6.329-15.737,6.772   C267.981,272.857,267.258,272.875,266.531,272.875z"/>
	<g>
		<path d="M425.5,211.15c18.49-18.39,28.68-42.73,28.68-68.53v-13.35c0-17.45-13.63-32.13-31.03-33.43l-89.3-6.67    c-23.34-1.74-45.61-11.34-64.4-27.76c-12.28-10.73-28.05-16.28-44.38-15.63c-31.8,1.27-57.53,25.64-60.65,57.07    c-0.37,2.28-0.31,5.19-0.31,5.57c-0.17,15.01,5.43,29.65,15.84,41.37l45.04,50.65c-33.25-9.18-61.17-6.55-80.4-1.86    c-26.44,6.45-42.38,17.95-43.88,19.06c-36.47,26.19-66.32,25.64-66.58,25.63c-3.19-0.11-6.12,1.65-7.51,4.51    c-0.85,1.78-1,3.76-0.49,5.59c0.07,0.28,0.45,1.32,0.7,1.89c2.63,6.02,16.91,35.68,53.08,61.47c9.52,6.79,19.76,12.72,30.65,17.8    c0,0-3.67,1.95-5.42,2.91c-8.78,4.84-16.36,9.01-32.47,9.01c-16.11,0-23.7-4.17-32.48-9.01c-9.36-5.15-19.97-10.99-40.19-10.99v16    c16.11,0,23.7,4.18,32.48,9.01c9.36,5.15,19.96,10.99,40.19,10.99c20.22,0,30.83-5.84,40.19-10.99    c8.78-4.83,16.36-9.01,32.47-9.01s23.69,4.18,32.47,9.01c9.36,5.15,19.97,10.99,40.19,10.99c20.23,0,30.84-5.84,40.2-10.99    c8.78-4.83,16.36-9.01,32.47-9.01s23.7,4.18,32.48,9.01c9.36,5.15,19.97,10.99,40.19,10.99c20.23,0,30.83-5.84,40.2-10.99    c8.78-4.83,16.36-9.01,32.47-9.01v-16c-20.22,0-30.83,5.84-40.19,10.99c-8.78,4.84-16.37,9.01-32.48,9.01    c-14.78,0-22.39-3.52-30.33-7.83c20.23-11.96,33.52-33.95,33.52-58.96c0-14.81-4.72-28.79-13.02-40.23    c1.26,0.05,2.52,0.08,3.79,0.08C382.88,239.51,407.1,229.44,425.5,211.15z M110.1,230.6c0.05-0.04,0.1-0.08,0.15-0.12    c0.57-0.42,56.89-41.81,137.21-4.77l28.17,31.69c1.07,1.7,1.95,4.45,1.61,5.15c-0.01,0.02-1.51,1.89-8.96,2.28    c-5.53,0.29-11.39-0.81-16.95-3.18c-12.3-5.25-41.08-14.6-89.79-14.6c-20.68,0-44.95,1.69-73.07,6.08    c-7.81,1.22-15.69,1.41-23.35,0.58C77.77,249.65,93.33,242.65,110.1,230.6z M313.88,329.72c-3.09-0.97-6.49-1.79-10.32-2.36    c-3.83-0.58-8.09-0.91-12.9-0.91c-20.22,0-30.83,5.84-40.19,10.99c-8.78,4.84-16.37,9.01-32.48,9.01    c-16.11,0-23.69-4.17-32.47-9.01c-9.36-5.15-19.97-10.99-40.19-10.99c-3.88,0-7.4,0.22-10.63,0.6    c-16.35-5.74-31.3-13.34-44.69-22.77c-17.5-12.32-29.44-25.75-37.12-36.37c12.27,2.66,25.26,3.03,38.05,1.03    c90.29-14.12,137.85,0.49,154.11,7.43c6.95,2.96,14.33,4.51,21.49,4.51c0.86,0,1.73-0.03,2.59-0.07    c11.58-0.61,19.15-4.4,22.49-11.25c3.95-8.1-0.1-16.69-2.14-20.16c-0.89-1.6-5.82-7.05-5.82-7.05l-91.75-103.2    c-7.74-8.7-11.91-19.49-11.8-30.48c-0.04-1.39,0.05-2.44,0.21-4.01c2.23-23.6,21.52-41.94,45.38-42.89    c12.25-0.49,24.04,3.66,33.22,11.69c21.41,18.71,46.91,29.66,73.74,31.67l89.29,6.66c9.1,0.68,16.23,8.36,16.23,17.48v5.35H268.4    c-4.42,0-8,3.58-8,8c0,40.61,25.11,75.46,60.63,89.84c18,8.77,29.49,26.99,29.49,47.2C350.52,303.05,335.36,323,313.88,329.72z     M332.11,219.5c-3.84-1.35-9.21-3.03-14.16-6.23c-22.56-12.61-38.5-35.7-41.16-62.65h160.99c-4.02,40.86-38.59,72.89-80.49,72.89    C348.5,223.51,340.03,222.1,332.11,219.5z"/>
		<circle cx="238.003" cy="101.452" r="8"/>
		<path d="M363.332,392.452c-16.111,0-23.696-4.175-32.478-9.008c-9.36-5.152-19.969-10.992-40.192-10.992    c-20.223,0-30.832,5.839-40.192,10.992c-8.781,4.833-16.365,9.008-32.476,9.008c-16.11,0-23.693-4.175-32.475-9.008    c-9.359-5.152-19.968-10.992-40.19-10.992c-20.222,0-30.83,5.84-40.189,10.992c-8.781,4.834-16.364,9.008-32.473,9.008    c-16.11,0-23.693-4.175-32.475-9.008c-9.359-5.152-19.968-10.992-40.19-10.992v16c16.109,0,23.693,4.174,32.474,9.008    c9.359,5.152,19.968,10.992,40.19,10.992c20.222,0,30.83-5.839,40.188-10.992c8.781-4.834,16.364-9.008,32.473-9.008    c16.11,0,23.693,4.175,32.475,9.008c9.359,5.152,19.968,10.992,40.19,10.992c20.223,0,30.831-5.839,40.191-10.992    c8.781-4.833,16.365-9.008,32.476-9.008c16.111,0,23.695,4.175,32.477,9.008c9.36,5.152,19.969,10.992,40.193,10.992    c20.224,0,30.833-5.839,40.193-10.992c8.782-4.833,16.366-9.008,32.478-9.008v-16c-20.224,0-30.833,5.839-40.193,10.992    C387.028,388.277,379.443,392.452,363.332,392.452z"/>
	</g>
</g>















</svg>
