<?xml version="1.0" encoding="iso-8859-1"?>
<!-- Generator: Adobe Illustrator 19.0.0, SVG Export Plug-In . SVG Version: 6.00 Build 0)  -->
<svg xmlns="http://www.w3.org/2000/svg" xmlns:xlink="http://www.w3.org/1999/xlink" version="1.1" id="Layer_1" x="0px" y="0px" viewBox="0 0 433.34 433.34" style="enable-background:new 0 0 433.34 433.34;" xml:space="preserve" width="512" height="512">
<g>
	<path style="fill:#3EBD9E;" d="M191.419,341.34c-26.175,0-47.47-21.295-47.47-47.47v-17.166l7.687,2.029   c-41.271-11.367-77.038-33.505-100.436-62.656c-16.95-21.109-23.632-48.718-18.332-75.747c0.111-0.584,0.5-2.396,0.5-2.396   c2.336-10.746,11.626-18.649,22.594-19.234l0.135-0.006c0.327-0.012,1.471-0.025,1.471-0.025c11.492,0,21.537-8.101,23.963-19.26   l2.639-12.158C86.596,76.096,96.638,68,108.049,68h2.06c13.476,0,24.44-10.959,24.44-24.43V32.44   c0-13.476,10.964-24.44,24.44-24.44h1.12c13.476,0,24.44,10.964,24.44,24.44v11.13c0,13.471,10.964,24.43,24.44,24.43h14.92   c13.476,0,24.44-10.959,24.44-24.43V32.44c0-13.476,10.964-24.44,24.44-24.44h1.12c13.476,0,24.44,10.964,24.44,24.44v11.13   c0,13.471,10.964,24.43,24.44,24.43l3.392,0.01l0.143,0.005c11.398,0.406,20.902,8.505,23.113,19.694l2.221,11.252   c2.252,11.42,12.337,19.709,23.981,19.709c0.065,0,1.449,0.014,1.771,0.025l0.127,0.005c11.193,0.585,20.528,8.674,22.7,19.669   c0.087,0.458,0.754,3.983,0.968,5.367c3.855,25.542-3.08,51.68-19.022,71.741c-23.329,29.361-59.126,51.672-100.486,63.142   l7.253-1.916v17.167c0,26.175-21.295,47.47-47.47,47.47H191.419z"/>
	<g>
		<circle cx="272.666" cy="73.057" r="8"/>
		<circle cx="159.383" cy="73.057" r="8"/>
		<path d="M409.039,142.09c-0.25-1.9-0.95-5.26-0.95-5.26c-2.89-14.64-15.47-25.4-30.25-26.12c-0.52-0.03-2.2-0.04-2.2-0.04    c-7.83,0-14.61-5.57-16.13-13.25l-2.22-11.26c-2.91-14.76-15.68-25.58-30.61-26.13c-0.4-0.02-3.89-0.03-3.89-0.03    c-9.07,0-16.44-7.37-16.44-16.43V32.44c0-17.89-14.55-32.44-32.44-32.44h-1.12c-17.89,0-32.44,14.55-32.44,32.44v11.13    c0,9.06-7.37,16.43-16.44,16.43h-14.92c-9.06,0-16.44-7.37-16.44-16.43V32.44c0-17.89-14.55-32.44-32.44-32.44h-1.12    c-17.89,0-32.44,14.55-32.44,32.44v11.13c0,9.06-7.37,16.43-16.44,16.43h-2.06c-15.15,0-28.48,10.75-31.7,25.56l-2.64,12.16    c-1.63,7.5-8.38,12.95-16.06,12.95c0,0-1.31,0.01-1.76,0.03c-14.58,0.62-27.22,11.16-30.34,25.52c0,0-0.41,1.95-0.55,2.68    c-5.73,29.34,1.49,59.18,19.96,82.19c21.83,27.19,53.87,48.52,90.99,61.18v11.6c0,30.59,24.88,55.47,55.47,55.47h17.03v5.73    c0,8.42-6.85,15.27-15.26,15.27h-78.04c-17.24,0-31.27,14.02-31.27,31.26v0.47c0,17.24,14.03,31.27,31.27,31.27h226.73    c4.42,0,8-3.59,8-8c0-4.42-3.58-8-8-8h-226.73c-8.42,0-15.27-6.85-15.27-15.27v-0.47c0-8.42,6.85-15.26,15.27-15.26h78.04    c17.24,0,31.26-14.03,31.26-31.27v-5.73h17.03c30.59,0,55.47-24.88,55.47-55.47v-11.6c37.42-12.76,69.65-34.31,91.5-61.81    C405.989,198.37,413.399,170.02,409.039,142.09z M375.919,210.5c-26.57,33.44-70.24,57.35-119.82,65.59    c-4.36,0.73-7.31,4.85-6.58,9.21c0.72,4.36,4.85,7.31,9.2,6.58c7.55-1.26,14.96-2.87,22.23-4.79v6.78    c0,21.76-17.7,39.47-39.47,39.47h-17.03v-11.5c0-4.42-3.58-8-8-8c-4.42,0-8,3.58-8,8v11.5h-17.03    c-21.76,0-39.47-17.71-39.47-39.47v-6.78c7.35,1.94,14.85,3.57,22.47,4.83c0.45,0.07,0.88,0.11,1.32,0.11    c3.84,0,7.23-2.78,7.88-6.7c0.72-4.36-2.23-8.48-6.59-9.2c-49.36-8.16-92.95-31.87-119.59-65.06    c-15.53-19.34-21.57-44.47-16.72-69.2c0.11-0.58,0.47-2.25,0.47-2.25c1.57-7.22,7.88-12.54,15.2-12.93    c0.28-0.01,1.26-0.02,1.26-0.02c15.15,0,28.48-10.75,31.7-25.56l2.64-12.16c1.63-7.5,8.38-12.95,16.06-12.95h2.06    c17.89,0,32.44-14.55,32.44-32.43V32.44c0-9.06,7.38-16.44,16.44-16.44h1.12c9.07,0,16.44,7.38,16.44,16.44v11.13    c0,17.88,14.55,32.43,32.44,32.43h14.92c17.89,0,32.44-14.55,32.44-32.43V32.44c0-9.06,7.37-16.44,16.44-16.44h1.12    c9.07,0,16.44,7.38,16.44,16.44v11.13c0,17.88,14.55,32.43,32.44,32.43c0,0,3.06,0.01,3.25,0.01c7.58,0.27,14.07,5.76,15.55,13.25    l2.22,11.25c2.99,15.16,16.38,26.16,31.83,26.16c0,0,1.2,0.01,1.48,0.02c7.46,0.39,13.81,5.84,15.27,13.23    c0,0,0.71,3.75,0.91,5.04C396.829,168.35,390.589,192.04,375.919,210.5z"/>
		<path d="M178.68,138.337c-4.418,0-8,3.582-8,8v75.333c0,4.418,3.582,8,8,8c4.418,0,8-3.582,8-8v-75.333    C186.68,141.919,183.098,138.337,178.68,138.337z"/>
		<path d="M254.68,138.337c-4.418,0-8,3.582-8,8v75.333c0,4.418,3.582,8,8,8c4.419,0,8-3.582,8-8v-75.333    C262.68,141.919,259.098,138.337,254.68,138.337z"/>
	</g>
</g>















</svg>
