<?xml version="1.0" encoding="iso-8859-1"?>
<!-- Generator: Adobe Illustrator 19.0.0, SVG Export Plug-In . SVG Version: 6.00 Build 0)  -->
<svg xmlns="http://www.w3.org/2000/svg" xmlns:xlink="http://www.w3.org/1999/xlink" version="1.1" id="Layer_1" x="0px" y="0px" viewBox="0 0 451.33 451.33" style="enable-background:new 0 0 451.33 451.33;" xml:space="preserve" width="512" height="512">
<g>
	<path style="fill:#F4A026;" d="M311.686,389.415c-21.514,0-32.437-3.561-42.999-7.004c-11.063-3.599-21.507-6.996-43-6.996   c-21.475,0-31.914,3.393-42.966,6.985c-10.598,3.455-21.521,7.015-43.034,7.015c-21.503,0-32.435-3.56-43.007-7.003   c-11.073-3.602-21.509-6.997-42.993-6.997c-18.126,0-34.462-12.122-39.726-29.478l-2.796-9.22l9.577-1.054   c5.374-0.591,11.887-4.678,18.783-9.004c9.512-5.973,20.296-12.744,31.252-12.744c12.925,0,19.501,5.08,25.862,9.992   c6.374,4.925,12.952,10.008,25.888,10.008s19.514-5.082,25.875-9.997c6.382-4.93,12.95-10.003,25.875-10.003   s19.501,5.08,25.862,9.992c6.374,4.925,12.952,10.008,25.888,10.008c12.937,0,19.515-5.083,25.875-9.998   c6.383-4.929,12.95-10.002,25.875-10.002c12.926,0,19.503,5.081,25.864,9.994c6.363,4.924,12.931,10.006,25.875,10.006   c12.936,0,19.514-5.082,25.875-9.997c6.372-4.922,12.949-10.003,25.875-10.003c10.957,0,21.74,6.771,31.254,12.745   c6.407,4.029,13.027,8.192,18.369,8.942l9.234,1.296l-2.686,8.93c-5.239,17.42-21.586,29.586-39.752,29.586   c-21.493,0-31.937,3.397-42.992,6.994C344.123,385.855,333.201,389.415,311.686,389.415z"/>
	<path style="fill:#E46A53;" d="M432.325,335.768c-4.52,0-9.99-2.937-19.814-9.109c-9.976-6.265-20.293-12.744-31.244-12.744   c-12.944,0-19.512,5.082-25.864,9.997c-6.401,4.937-12.97,10.003-25.886,10.003c-12.926,0-19.503-5.081-25.864-9.995   c-6.362-4.923-12.929-10.005-25.875-10.005c-12.936,0-19.514,5.082-25.875,9.997c-6.372,4.922-12.949,10.003-25.875,10.003   c-12.925,0-19.493-5.073-25.845-9.979c-6.392-4.939-12.969-10.021-25.905-10.021s-19.514,5.083-25.875,9.998   c-6.382,4.929-12.95,10.002-25.875,10.002s-19.493-5.073-25.845-9.979c-6.392-4.939-12.969-10.021-25.905-10.021   c-10.96,0-21.278,6.479-31.255,12.745c-6.56,4.122-15.419,9.036-20.364,9.036c-7.005,0-9.059-7.125-10.019-11.19   c-0.06-0.256-0.338-1.431-0.412-1.802c-0.633-3.147-1.867-12.552,2.098-26.226l1.949-6.719l6.771,1.013   c0.266-0.005,0.641-0.046,0.919-0.076l0.24-0.026c5.313-0.535,11.562-4.455,18.797-8.995c9.538-5.988,20.321-12.759,31.277-12.759   c12.925,0,19.501,5.08,25.862,9.992c6.365,4.926,12.933,10.008,25.888,10.008c12.945,0,19.513-5.082,25.864-9.997   c6.375-4.923,12.951-10.003,25.886-10.003c12.925,0,19.501,5.08,25.862,9.992c6.365,4.926,12.933,10.008,25.888,10.008   c12.947,0,19.513-5.082,25.864-9.997c6.373-4.923,12.95-10.003,25.887-10.003c12.926,0,19.503,5.081,25.864,9.994   c6.363,4.924,12.931,10.006,25.875,10.006c12.957,0,19.523-5.082,25.874-9.997c6.373-4.923,12.95-10.003,25.876-10.003   c10.971,0,21.743,6.772,31.248,12.747c7.066,4.437,13.173,8.271,18.401,8.949l4.069,0.528l1.945,3.613   c7.508,13.943,6.536,25.81,6.188,28.489c-0.609,8.243-4.801,11.737-8.91,12.354C433.598,335.71,432.967,335.768,432.325,335.768z"/>
	<path style="fill:#E46A53;" d="M226.016,97.915c-25.312,0-48.191-4.579-62.772-12.563l-16.917-9.263l18.506-5.43   c19.772-5.802,40.357-8.744,61.183-8.744s41.411,2.942,61.183,8.744l18.506,5.43l-16.917,9.263   C274.208,93.336,251.328,97.915,226.016,97.915z"/>
	<path style="fill:#F4A026;" d="M432.506,290.725c-5.185,0-11.013-3.425-19.995-9.065c-6.966-4.373-14.17-8.896-21.708-11.206   l-5.531-1.695l-0.123-5.784c-0.235-11.062-2.481-33.932-14.883-62.813c-10.163-23.659-25.07-46.462-44.308-67.776   c-10.807-11.965-23.227-23.667-36.914-34.779l-9.008-7.313l10.037-5.819c2.977-1.726,5.516-3.602,7.547-5.576l3.717-3.612   l4.815,1.915c40.194,15.982,74.426,43.467,98.992,79.482c24.603,36.067,37.698,78.043,37.871,121.39l-0.021,0.623   c-0.483,6.522-4.16,11.213-9.367,11.95L432.506,290.725z"/>
	<path style="fill:#F4A026;" d="M329.516,288.915c-12.926,0-19.503-5.081-25.864-9.994c-4.821-3.726-9.8-7.573-17.617-9.192   l-5.997-1.242l-0.366-6.113c-1.361-22.686-7.354-101.032-27.306-156.689l-3.184-8.883l9.284-1.688   c5.898-1.072,11.445-2.447,16.485-4.086l4.035-1.313l3.35,2.604c51.148,39.762,75.806,80.024,87.483,106.798   c12.128,27.845,14.747,50.565,15.229,61.63l0.336,7.707l-7.689,0.616c-10.671,0.854-16.58,5.424-22.294,9.843   C349.029,283.835,342.453,288.915,329.516,288.915z"/>
	<path style="fill:#F4A026;" d="M226.026,288.915c-12.935,0-19.512-5.08-25.872-9.992c-5.062-3.917-10.28-7.957-18.805-9.423   l-7.09-1.22l0.463-7.179c1.516-23.516,8.034-104.448,28.249-158.574l2.103-5.629l5.992,0.451c5.004,0.376,10.035,0.567,14.95,0.567   c5.807,0,11.537-0.249,17.029-0.738l6.066-0.542l2.137,5.704c20.201,53.946,26.77,134.907,28.302,158.436l0.491,7.543l-7.504,0.917   c-9.641,1.178-15.231,5.5-20.639,9.679C245.53,283.834,238.953,288.915,226.026,288.915z"/>
	<path style="fill:#F4A026;" d="M122.526,288.915c-12.935,0-19.512-5.08-25.872-9.992c-4.594-3.555-9.33-7.22-16.601-8.97   l-6.35-1.529l0.227-6.527c0.391-11.237,2.896-34.336,15.281-62.776c11.483-26.337,35.637-65.973,85.504-105.25l3.175-2.5   l3.897,1.072c4.296,1.181,8.944,2.199,13.816,3.026l9.401,1.594l-3.205,8.981c-19.787,55.457-25.783,133.367-27.149,155.925   l-0.391,6.444l-6.381,0.979c-8.928,1.37-14.294,5.515-19.483,9.523C142.028,283.836,135.452,288.915,122.526,288.915z"/>
	<path style="fill:#F4A026;" d="M19.526,290.725c-6.044,0-10.366-5.125-10.508-12.464l-0.001-0.188   c0.173-43.347,13.269-85.323,37.871-121.39c24.567-36.016,58.798-63.5,98.993-79.482l4.813-1.914l3.716,3.608   c2.821,2.739,6.618,5.289,11.282,7.579l11.105,5.451l-9.526,7.892c-12.63,10.463-24.135,21.42-34.194,32.568   c-19.241,21.318-34.148,44.121-44.309,67.778c-12.026,28.015-14.463,50.471-14.846,61.364l-0.238,6.766l-6.712,0.885   c-9.56,1.261-18.643,6.958-27.427,12.469C30.557,287.299,24.735,290.725,19.526,290.725z"/>
	<g>
		<path d="M445.086,293.145c1.63-1.79,3.16-4.09,4.45-7.1c0.88-1.8,1.48-6.59,1.48-7.13c0-47-14.34-92.02-41.47-130.19    c-26.54-37.35-63.2-65.39-106.02-81.1c-24.79-9.1-50.87-13.71-77.51-13.71c-26.64,0-52.72,4.61-77.51,13.71    c-42.82,15.71-79.48,43.75-106.02,81.1c-27.13,38.17-41.47,83.19-41.47,130.19c0,1.58,0.61,4.98,1.48,7.13    c0.62,1.45,1.3,2.72,2.02,3.87c-5.29,15.28-4.85,26.58-4,32.3c1.48,9.05,3.36,11.61,3.68,12.15    c0.24,27.09,22.34,49.05,49.49,49.05c20.23,0,30.09,3.21,40.52,6.61c11.17,3.63,22.71,7.39,45.48,7.39    c22.77,0,34.31-3.76,45.48-7.39c10.43-3.4,20.29-6.61,40.52-6.61c20.23,0,30.09,3.21,40.52,6.61c11.17,3.63,22.71,7.39,45.48,7.39    s34.31-3.76,45.48-7.39c10.43-3.4,20.29-6.61,40.52-6.61c26.76,0,48.61-21.35,49.46-47.91c2.58-1.84,3.72-10.07,3.73-10.12    C451.006,324.705,453.536,310.395,445.086,293.145z M303.196,84.635c78.82,31.34,131.48,108.32,131.82,193.47    c0,0-0.32,4.31-2.51,4.62c-3.24,0-9.88-4.16-15.74-7.84c-7.2-4.52-15.07-9.46-23.62-12.08c-0.25-11.77-2.63-35.76-15.53-65.8    c-10.51-24.47-25.89-48.01-45.72-69.98c-11.19-12.39-23.83-24.28-37.81-35.63C297.656,89.325,300.706,87.055,303.196,84.635z     M210.466,105.325c5.05,0.38,10.24,0.59,15.55,0.59c6.08,0,12.02-0.26,17.74-0.77c19.69,52.58,26.18,131.1,27.81,156.15    c-11.78,1.44-18.79,6.83-24.56,11.29c-6.02,4.65-10.78,8.33-20.98,8.33c-10.21,0-14.97-3.68-20.99-8.33    c-5.4-4.18-11.87-9.17-22.33-10.97C184.296,236.955,190.746,158.125,210.466,105.325z M166.666,261.485    c-10.95,1.68-17.62,6.82-23.16,11.1c-6.02,4.65-10.78,8.33-20.98,8.33c-10.21,0-14.97-3.68-20.99-8.33    c-4.91-3.8-10.72-8.27-19.61-10.41c0.37-10.64,2.74-32.58,14.62-59.86c11.99-27.5,35.84-64.92,83.12-102.16    c4.58,1.26,9.47,2.33,14.6,3.2C174.196,159.605,168.116,237.545,166.666,261.485z M259.896,102.985    c6.27-1.14,12.15-2.6,17.53-4.35c48.56,37.75,72.9,75.8,85.06,103.68c11.49,26.38,14.09,47.77,14.57,58.78    c-12.99,1.04-20.46,6.78-26.55,11.49c-6.02,4.65-10.78,8.33-20.99,8.33c-10.2,0-14.96-3.68-20.98-8.33    c-5.15-3.98-11.27-8.7-20.88-10.69C286.246,238.395,280.186,159.585,259.896,102.985z M226.016,69.915    c20.11,0,39.88,2.83,58.93,8.42c-11.67,6.39-32.53,11.58-58.93,11.58c-26.4,0-47.26-5.19-58.93-11.58    C186.136,72.745,205.906,69.915,226.016,69.915z M148.836,84.635c3.43,3.33,7.93,6.37,13.33,9.02    c-12.88,10.67-24.59,21.8-35.03,33.37c-19.83,21.97-35.21,45.51-45.72,69.98c-12.35,28.77-15.06,51.99-15.49,64.24    c-11.3,1.49-21.51,7.9-30.66,13.64c-5.85,3.68-12.49,7.84-15.74,7.84c-2.42,0-2.51-4.62-2.51-4.62    C17.356,192.955,70.016,115.975,148.836,84.635z M397.686,367.415c-22.77,0-34.32,3.76-45.48,7.39    c-10.43,3.4-20.29,6.61-40.52,6.61s-30.09-3.21-40.52-6.61c-11.16-3.63-22.71-7.39-45.48-7.39c-22.77,0-34.31,3.76-45.48,7.39    c-10.43,3.4-20.29,6.61-40.52,6.61c-20.23,0-30.09-3.21-40.53-6.61c-11.16-3.63-22.7-7.39-45.47-7.39    c-15.1,0-27.9-10.05-32.07-23.8c7.18-0.79,14.51-5.38,22.16-10.18c8.6-5.4,18.35-11.52,27-11.52c10.2,0,14.96,3.68,20.98,8.33    c6.73,5.2,15.1,11.67,30.77,11.67c15.67,0,24.04-6.47,30.77-11.67c6.02-4.65,10.77-8.33,20.98-8.33c10.2,0,14.96,3.68,20.98,8.33    c6.73,5.2,15.1,11.67,30.77,11.67c15.67,0,24.04-6.47,30.77-11.67c6.02-4.65,10.77-8.33,20.98-8.33c10.2,0,14.96,3.68,20.98,8.33    c6.72,5.2,15.1,11.67,30.76,11.67c15.67,0,24.04-6.47,30.77-11.67c6.02-4.65,10.78-8.33,20.98-8.33c8.65,0,18.4,6.12,27,11.52    c7.41,4.66,14.53,9.11,21.51,10.09C425.626,357.325,412.816,367.415,397.686,367.415z M435.156,322.415c0,0-0.32,5.23-2.28,5.28    c-2.45,0.76-11-4.6-16.11-7.81c-10.43-6.55-22.25-13.97-35.5-13.97c-15.67,0-24.04,6.47-30.76,11.67    c-6.03,4.65-10.78,8.33-20.99,8.33c-10.2,0-14.96-3.68-20.98-8.33c-6.72-5.2-15.1-11.67-30.76-11.67    c-15.67,0-24.04,6.47-30.77,11.67c-6.02,4.65-10.78,8.33-20.98,8.33c-10.21,0-14.96-3.68-20.98-8.33    c-6.73-5.2-15.1-11.67-30.77-11.67c-15.67,0-24.04,6.47-30.77,11.67c-6.02,4.65-10.77,8.33-20.98,8.33    c-10.21,0-14.96-3.68-20.98-8.33c-6.73-5.2-15.1-11.67-30.77-11.67c-13.26,0-25.08,7.42-35.51,13.97    c-5.11,3.21-13.53,7.81-16.11,7.81c-1.24,0-2.39-5.81-2.48-6.08c-0.18-0.72-2.14-9.22,1.83-22.91c1.07,0.16,2.36-0.01,3.03-0.08    c7.15-0.72,14.19-5.14,22.24-10.19c8.6-5.4,18.35-11.52,27-11.52c10.2,0,14.96,3.68,20.98,8.33c6.72,5.2,15.1,11.67,30.77,11.67    c15.66,0,24.04-6.47,30.76-11.67c6.02-4.65,10.78-8.33,20.99-8.33c10.2,0,14.96,3.68,20.98,8.33c6.72,5.2,15.1,11.67,30.77,11.67    c15.66,0,24.04-6.47,30.76-11.67c6.02-4.65,10.78-8.33,20.99-8.33c10.2,0,14.96,3.68,20.98,8.33c6.72,5.2,15.09,11.67,30.76,11.67    s24.05-6.47,30.77-11.67c6.02-4.65,10.78-8.33,20.98-8.33c8.65,0,18.4,6.12,26.99,11.52c7.82,4.91,14.69,9.21,21.63,10.11    C436.746,311.285,435.276,321.665,435.156,322.415z"/>
	</g>
</g>















</svg>
