<?xml version="1.0" encoding="iso-8859-1"?>
<!-- Generator: Adobe Illustrator 19.0.0, SVG Export Plug-In . SVG Version: 6.00 Build 0)  -->
<svg xmlns="http://www.w3.org/2000/svg" xmlns:xlink="http://www.w3.org/1999/xlink" version="1.1" id="Layer_1" x="0px" y="0px" viewBox="0 0 457.74 457.74" style="enable-background:new 0 0 457.74 457.74;" xml:space="preserve" width="512" height="512">
<g>
	<path style="fill:#4A8EB9;" d="M241.15,396.213c-8.909-11.151-19.46-21.342-31.357-30.289   c-9.717-7.305-20.364-13.824-31.646-19.376l-21.021-10.347l22.96-4.67c6.738-1.371,13.866-3.319,21.185-5.79   c0,0,6.991-2.437,9.688-3.333l4.337-1.441c0,0,6.098,5.265,7.046,6.026c1.047,0.84,4.724,3.619,4.724,3.619   c7.885,7.173,19.801,18.014,26.061,40.81c1.451,5.278,1.899,12.185,2.265,19.393l1.259,24.798L241.15,396.213z"/>
	<path style="fill:#3768AF;" d="M296.84,449.74c-10.243,0-18.545-1.159-32.163-16.164c-7.635-8.409-9.143-39.775-9.143-39.775   c-0.406-8.489-0.789-16.507-2.407-22.376c-5.557-20.234-15.584-31.055-23.281-38.253c-0.952-0.891-3.517-3.198-6.347-5.268   c-23.027-17.856-36.659-45.494-36.659-74.724c0-52.107,42.393-94.5,94.5-94.5c49.711,0,90.655,38.678,94.245,87.52   c0.164,2.226,0.017,11.076-0.388,16.103c-0.566,7.023-1.561,17.709-3.19,30.543c-4.159,32.801-12.404,78.756-28.063,111.412   C324.967,443.832,306.286,449.74,296.84,449.74z"/>
	<path style="fill:#61ACD2;" d="M190.183,96.025l23.447-70.354C217.968,12.643,229.136,8,238.14,8l0.375,0.001   c8.728,0.124,20.346,5.014,24.366,18.386l22.105,73.369L190.183,96.025z"/>
	<path style="fill:#4A8EB9;" d="M315.043,164.892c-6.612-2.528-13.49-4.304-20.443-5.279c0,0-11.312-1.623-13.733-1.926   c-21.584-2.697-53.485-5.547-75.346-5.547c-13.206,0-25.349,0.638-36.09,1.896c0,0-13.394,1.501-19.875,3.647l-12.581,3.715   l6.487-34.026c3.596-18.354,19.726-31.647,38.361-31.647c0.526,0,103.161,4.031,103.161,4.031   c18.564,0.729,34.166,14.566,37.096,32.901l5.885,37.176L315.043,164.892z"/>
	<path style="fill:#61ACD2;" d="M156.46,334.12c-2.857,0-21.757,0-33.747-8.308c-5.086-3.035-13.046-10.463-16.073-13.769   C90.685,294.579,81.9,271.94,81.9,248.29c0-44.129,29.968-81.969,72.876-92.019c0,0,11.051-1.756,14.748-2.251   c10.774-1.444,22.908-1.88,35.996-1.88c9.779,0,20.265,0.355,31.163,1.057l3.042,15.16c-32.621,16.07-52.886,48.573-52.886,84.824   c0,21.333,7.376,42.309,20.77,59.065l7.097,8.879l-10.753,3.684l-2.644,0.917C184.766,331.301,169.69,334.12,156.46,334.12z"/>
	<g>
		<path d="M287.497,400.371c-4.242,0-7.779-3.334-7.984-7.618c-0.451-9.454-0.919-19.229-3.243-27.69    c-8.099-29.484-24.325-44.255-33.042-52.19c0,0-1.831-1.587-2.624-2.15c-18.635-13.224-29.761-34.736-29.761-57.545    c0-20.993,9.289-40.757,25.486-54.223c3.396-2.825,8.44-2.361,11.266,1.037c2.825,3.397,2.36,8.441-1.037,11.266    c-12.529,10.417-19.715,25.697-19.715,41.92c0,17.634,8.606,34.269,23.021,44.498c1.319,0.937,4.142,3.374,4.142,3.374    c9.907,9.019,28.365,25.82,37.691,59.775c2.794,10.168,3.304,20.842,3.798,31.166c0.211,4.413-3.196,8.162-7.609,8.373    C287.756,400.368,287.626,400.371,287.497,400.371z"/>
		<path d="M335.49,166.18l-5.51-34.77c-3.22-20.15-19.14-35.78-38.87-39.05l-20.57-68.28C266.2,9.67,253.68,0.22,238.64,0h-0.54    c-14.81,0-27.36,9.03-32.06,23.14l-21.55,64.65l-0.77-0.03c-23.34-0.92-43.6,15.08-48.11,38.07l-5.96,31.25    c-12.73,6.55-24.1,15.74-33.16,27.01C81.92,202.2,73.9,225,73.9,248.29c0,25.65,9.53,50.21,26.84,69.15    c3.21,3.51,11.75,11.59,17.86,15.23c5.512,3.296,11.649,5.71,18.347,7.284c0.435,0.102,1.805,0.422,2.543,0.611    c1.904,0.488,5.725,1.493,9.4,2.675c23.16,7.42,77.26,30.29,104.76,87.87c0.06,0.12,0.11,0.24,0.18,0.35    c-0.13-0.27,2.74,5.09,4.92,7.5c17.05,18.78,28.72,18.78,38.09,18.78c11.33,0,33.44-6.5,54.31-50.02    c16.12-33.6,24.53-79.93,28.75-113.02c2.93-22.92,3.94-41.38,3.94-41.52C383.84,216.52,364.5,184.31,335.49,166.18z M221.22,28.2    c3-9.01,10.65-12.2,16.92-12.2h0.26c6.31,0.09,14.05,3.48,16.82,12.69l18.87,62.63l-72.95-2.87L221.22,28.2z M151.32,128.87    c2.97-15.16,16.36-25.73,31.77-25.12l101.58,4c14.77,0.58,27.18,11.59,29.51,26.17l3.72,23.5c-7.06-2.7-14.49-4.65-22.19-5.73    c0,0,0-0.01,0.01-0.01c-18.1-2.88-61.76-7.54-90.2-7.54c-13.47,0-25.92,0.65-37.02,1.95c-0.16,0.01-0.31,0.03-0.47,0.05    c-5.07,0.6-9.98,1.35-14.6,2.24c-0.1,0.02-0.2,0.04-0.3,0.06c-1.97,0.46-3.91,1-5.84,1.57L151.32,128.87z M148.6,325.73    c-1.9-0.2-5.51-0.83-5.51-0.84c-6.1-1.15-11.55-3.13-16.28-5.95c-3.99-2.38-11.23-8.98-14.27-12.3    c-14.6-15.98-22.64-36.71-22.64-58.35c0-40.42,27.42-75.03,66.7-84.23c4.22-0.8,8.72-1.49,13.38-2.04c0.06,0,0.12-0.01,0.18-0.02    c10.53-1.23,22.43-1.86,35.36-1.86c10.45,0,20.85,0.41,30.65,1.04c0,0,0.01,0,0.02,0c-33.94,16.72-57.35,51.67-57.35,92    c0,23.51,8.14,46.07,22.52,64.06c-0.35,0.12-2.3,0.8-2.65,0.92c-15.67,5.28-29.89,7.96-42.25,7.96    C153.76,326.12,151.13,325.98,148.6,325.73z M214.6,359.53c-11.32-8.51-22.66-15.11-32.92-20.16    c5.703-1.16,11.614-2.696,17.706-4.604c3.483-1.115,6.127-2.034,7.993-2.681c2.005-0.695,4.432-1.531,6.1-2.085    c0.23,0.2,8.2,6.53,8.2,6.53c7.64,6.95,18.09,16.47,23.73,37.01c1.21,4.4,1.64,10.77,1.99,17.68    C237.23,378.49,225.93,368.05,214.6,359.53z M364.07,291.84c-4.07,32.1-12.14,77.26-27.34,108.96    c-17.72,36.95-33.8,40.94-39.89,40.94c-7.8,0-13.95,0-26.24-13.54c-5.71-6.29-6.43-21.37-7.07-34.68    c-0.43-8.98-0.83-17.47-2.69-24.22c-6.87-25.01-20.34-37.27-28.39-44.6c0,0-0.84-0.74-1.1-0.93    c-22.86-16.22-36.51-42.61-36.51-70.59c0-47.7,38.81-86.5,86.5-86.5c47.63,0,86.38,38.68,86.5,86.28    C367.73,254.92,366.78,270.49,364.07,291.84z"/>
	</g>
</g>















</svg>
