<?xml version="1.0" encoding="iso-8859-1"?>
<!-- Generator: Adobe Illustrator 19.0.0, SVG Export Plug-In . SVG Version: 6.00 Build 0)  -->
<svg xmlns="http://www.w3.org/2000/svg" xmlns:xlink="http://www.w3.org/1999/xlink" version="1.1" id="Layer_1" x="0px" y="0px" viewBox="0 0 479 479" style="enable-background:new 0 0 479 479;" xml:space="preserve" width="512" height="512">
<g>
	<rect x="217.98" y="156.66" style="fill:#E46A53;" width="84.02" height="38.5"/>
	<path style="fill:#F4A026;" d="M195.97,195.16H324v43.986l-9.746-2.179c-16.674-3.729-34.229-5.618-52.174-5.618   c-19.465,0-38.377,2.208-56.212,6.563l-9.897,2.417V195.16z"/>
	<path style="fill:#F4A026;" d="M324,239.07l10.518,3.486c48.422,16.054,78.502,46.816,78.502,80.283   c0,24.438-15.702,47.417-44.212,64.701c-10.198,6.182-21.733,11.431-34.285,15.601L324,406.638V239.07z"/>
	<path style="fill:#E46A53;" d="M262.08,414.34c-20.925,0-41.157-2.527-60.133-7.513l-5.967-1.567v-164.78l5.958-1.573   c18.986-5.015,39.221-7.557,60.143-7.557c19.297,0,38.072,2.175,55.801,6.465l6.119,1.48v167.128l-6.127,1.475   C300.121,412.173,281.349,414.34,262.08,414.34z"/>
	<path style="fill:#F4A026;" d="M185.283,401.682c-18.948-6.785-34.954-15.862-47.572-26.979l-2.711-2.39v-98.928l2.713-2.39   c12.543-11.046,28.547-20.103,47.569-26.918l10.698-3.833v165.268L185.283,401.682z"/>
	<polygon style="fill:#E46A53;" points="102,232.138 135,251.123 135,403.565 102,413.563  "/>
	<path style="fill:#F4A026;" d="M51.33,386.47c-12.131,0-22-14.27-22-31.81c0-17.546,9.869-31.82,22-31.82s22,14.274,22,31.82   C73.33,372.2,63.461,386.47,51.33,386.47z"/>
	<path style="fill:#F4A026;" d="M51.33,322.84c-12.131,0-22-14.27-22-31.81c0-17.546,9.869-31.82,22-31.82s22,14.274,22,31.82   C73.33,308.57,63.461,322.84,51.33,322.84z"/>
	<path style="fill:#61ACD2;" d="M261.01,350.84c-15.439,0-28-12.561-28-28s12.561-28,28-28s28,12.561,28,28   S276.449,350.84,261.01,350.84z"/>
	<path style="fill:#61ACD2;" d="M122.67,183.66c-11.397,0-20.67-9.272-20.67-20.67c0-11.392,9.272-20.66,20.67-20.66   c11.392,0,20.66,9.269,20.66,20.66C143.33,174.388,134.062,183.66,122.67,183.66z"/>
	<path style="fill:#61ACD2;" d="M418.67,231.57c-10.245,0-18.58-8.335-18.58-18.58c0-10.239,8.335-18.57,18.58-18.57   c10.24,0,18.57,8.331,18.57,18.57C437.24,223.235,428.91,231.57,418.67,231.57z"/>
	<path style="fill:#61ACD2;" d="M366.67,147.16c-9.098,0-16.5-7.402-16.5-16.5s7.402-16.5,16.5-16.5s16.5,7.402,16.5,16.5   S375.768,147.16,366.67,147.16z"/>
	<g>
		<path d="M471,56.66c-14.553,0-22.221,6.624-28.382,11.946c-5.413,4.676-9.324,8.054-17.923,8.054c-8.6,0-12.51-3.378-17.923-8.054    c-6.161-5.322-13.829-11.946-28.382-11.946c-14.552,0-22.219,6.624-28.379,11.946c-5.412,4.676-9.322,8.054-17.919,8.054    c-8.598,0-12.508-3.378-17.92-8.054c-6.161-5.322-13.828-11.946-28.38-11.946c-14.552,0-22.219,6.624-28.379,11.946    c-5.412,4.676-9.322,8.054-17.919,8.054c-8.597,0-12.507-3.378-17.918-8.054c-6.16-5.322-13.827-11.946-28.378-11.946    c-14.552,0-22.22,6.624-28.38,11.946c-5.412,4.676-9.322,8.054-17.92,8.054c-8.597,0-12.507-3.378-17.919-8.054    c-6.16-5.322-13.827-11.946-28.379-11.946c-14.552,0-22.219,6.624-28.379,11.946c-5.412,4.676-9.322,8.054-17.92,8.054    c-8.598,0-12.508-3.378-17.919-8.054C30.219,63.284,22.552,56.66,8,56.66c-4.418,0-8,3.582-8,8s3.581,8,8,8    c8.598,0,12.508,3.378,17.919,8.054C32.08,86.036,39.747,92.66,54.299,92.66c14.552,0,22.219-6.624,28.38-11.946    C88.09,76.038,92,72.66,100.598,72.66c8.597,0,12.507,3.378,17.919,8.054c6.16,5.322,13.827,11.946,28.379,11.946    c14.552,0,22.219-6.624,28.38-11.946c5.412-4.676,9.322-8.054,17.92-8.054c8.597,0,12.507,3.378,17.918,8.054    c6.16,5.322,13.827,11.946,28.378,11.946c14.552,0,22.219-6.624,28.379-11.946c5.412-4.676,9.322-8.054,17.919-8.054    c8.598,0,12.508,3.378,17.92,8.054c6.161,5.322,13.828,11.946,28.38,11.946c14.552,0,22.219-6.624,28.379-11.946    c5.412-4.676,9.322-8.054,17.919-8.054c8.599,0,12.51,3.378,17.923,8.054c6.161,5.322,13.829,11.946,28.382,11.946    s22.221-6.624,28.382-11.946c5.413-4.676,9.324-8.054,17.923-8.054c4.418,0,8-3.582,8-8S475.418,56.66,471,56.66z"/>
		<path d="M393.6,266.66c-15.55-14.3-36.76-25.74-61.6-33.29v-38.21c0-4.42-3.58-8-8-8h-14v-30.5c0-4.42-3.58-8-8-8h-84.02    c-4.42,0-8,3.58-8,8v30.5h-14.01c-4.42,0-8,3.58-8,8v39.54c-17.04,5.57-32.27,13.03-44.97,21.98v-5.55c0-2.86-1.53-5.5-4.01-6.93    l-33-19c-2.47-1.43-5.52-1.42-7.99,0c-2.48,1.43-4,4.07-4,6.93v82.71H75.53c3.66-6.6,5.8-14.81,5.8-23.81    c0-22.33-13.17-39.82-30-39.82c-16.82,0-30,17.49-30,39.82c0,13.14,4.57,24.61,11.76,31.81c-7.19,7.21-11.76,18.68-11.76,31.82    c0,22.33,13.18,39.81,30,39.81c16.83,0,30-17.48,30-39.81c0-9-2.14-17.22-5.8-23.82H94v82.72c0,2.53,1.2,4.92,3.23,6.42    c1.4,1.04,3.07,1.58,4.77,1.58c0.78,0,1.56-0.11,2.32-0.34l33-10c3.37-1.03,5.68-4.14,5.68-7.66v-14.55    c12.79,9.02,27.99,16.43,44.83,21.95c1.62,0.62,6.61,2.05,8.98,2.71c20.18,5.64,42.35,8.67,65.27,8.67    c41.76,0,81.13-9.93,110.88-27.96c30.99-18.79,48.06-44.2,48.06-71.54C421.02,302.58,411.54,283.15,393.6,266.66z M51.33,378.47    c-6.62,0-14-9.78-14-23.81s7.38-23.82,14-23.82c6.63,0,14,9.79,14,23.82S57.96,378.47,51.33,378.47z M51.33,314.84    c-6.62,0-14-9.78-14-23.81s7.38-23.82,14-23.82c6.63,0,14,9.79,14,23.82S57.96,314.84,51.33,314.84z M127,397.63l-17,5.15V245.97    l17,9.78V397.63z M187.98,394.15c-17.65-6.32-33.04-14.93-44.98-25.45V277c11.73-10.33,27.09-18.98,44.98-25.39V394.15z     M225.98,164.66H294v22.5h-68.02V164.66z M316,400.12c-16.9,4.07-35.12,6.22-53.92,6.22c-20.42,0-40.13-2.53-58.1-7.25V246.64    c18.29-4.83,37.8-7.29,58.1-7.29c18.71,0,36.81,2.1,53.92,6.24V400.12z M316,229.16c-17.22-3.85-35.31-5.81-53.92-5.81    c-20.18,0-39.68,2.29-58.11,6.79v-26.98H316V229.16z M364.66,380.7c-9.8,5.94-20.8,10.91-32.66,14.85v-145.4    c44.7,14.82,73.02,42.66,73.02,72.69C405.02,344.37,390.69,364.92,364.66,380.7z"/>
		<path d="M261.01,286.84c-19.85,0-36,16.15-36,36c0,19.86,16.15,36,36,36s36-16.14,36-36    C297.01,302.99,280.86,286.84,261.01,286.84z M261.01,342.84c-11.03,0-20-8.97-20-20c0-11.02,8.97-20,20-20c11.03,0,20,8.98,20,20    C281.01,333.87,272.04,342.84,261.01,342.84z"/>
		<path d="M122.67,134.33c-15.81,0-28.67,12.86-28.67,28.66c0,15.81,12.86,28.67,28.67,28.67c15.8,0,28.66-12.86,28.66-28.67    C151.33,147.19,138.47,134.33,122.67,134.33z M122.67,175.66c-6.99,0-12.67-5.68-12.67-12.67c0-6.98,5.68-12.66,12.67-12.66    c6.98,0,12.66,5.68,12.66,12.66C135.33,169.98,129.65,175.66,122.67,175.66z"/>
		<path d="M418.67,186.42c-14.66,0-26.58,11.92-26.58,26.57c0,14.66,11.92,26.58,26.58,26.58c14.65,0,26.57-11.92,26.57-26.58    C445.24,198.34,433.32,186.42,418.67,186.42z M418.67,223.57c-5.84,0-10.58-4.74-10.58-10.58c0-5.83,4.74-10.57,10.58-10.57    c5.83,0,10.57,4.74,10.57,10.57C429.24,218.83,424.5,223.57,418.67,223.57z"/>
		<path d="M366.67,106.16c-13.51,0-24.5,10.99-24.5,24.5s10.99,24.5,24.5,24.5s24.5-10.99,24.5-24.5S380.18,106.16,366.67,106.16z     M366.67,139.16c-4.69,0-8.5-3.81-8.5-8.5c0-4.69,3.81-8.5,8.5-8.5c4.68,0,8.5,3.81,8.5,8.5    C375.17,135.35,371.35,139.16,366.67,139.16z"/>
	</g>
</g>















</svg>
