<?xml version="1.0" encoding="iso-8859-1"?>
<!-- Generator: Adobe Illustrator 19.0.0, SVG Export Plug-In . SVG Version: 6.00 Build 0)  -->
<svg xmlns="http://www.w3.org/2000/svg" xmlns:xlink="http://www.w3.org/1999/xlink" version="1.1" id="Layer_1" x="0px" y="0px" viewBox="0 0 454.606 454.606" style="enable-background:new 0 0 454.606 454.606;" xml:space="preserve" width="512" height="512">
<g>
	<path style="fill:#61ACD2;" d="M259.011,360.048c-18.127,0-35.263-2.719-46.445-4.999l-13.094-2.671c0,0,8.031-12.079,8.044-12.098   c-4.956,1.578-11.62,2.347-20.317,2.347c-26.096,0.001-64.588-7.033-79.926-10.057l-18.559-3.659   c-12.648,6.95-25.395,10.46-38.053,10.461c-4.871,0-9.79-0.521-14.62-1.548c-16.099-3.428-25.609-9.542-28.269-18.175   c-2.898-9.359,3.123-19.171,6.971-24.187l3.898-5.083c-1.746-1.692-2.873-3.397-3.589-4.78l-1.439-2.778l0.596-3.073   c3.354-17.311,28.849-27.437,49.645-32.885c12.96-3.394,25.968-5.506,34.597-6.681l15.769-2.146l-1.754,4.08   c15.533-17.402,47.389-24.668,63.194-27.294l16.274-2.704c13.272-18.2,33.342-30.771,47.167-37.873l19.676-10.109   c11.697-22.325,27.771-39.529,47.96-51.287c21.014-12.24,46.163-18.446,74.747-18.446c10.208,0,20.788,0.807,31.447,2.396   c17.538,2.614,31.629,16.333,34.267,33.363c2.664,17.239-6.901,29.032-28.247,35.658c-0.131,0.041-10.667,4.344-14.082,6.089   c-8.289,4.235-14.229,11.276-18.501,19.393c-13.381,25.393-4.751,60.993-0.419,75.12c0.034,0.104,1.068,3.461,1.285,4.331   c1.758,7.005,4.775,24.85-5.145,39.212c-7.035,10.182-19.123,16.636-35.927,19.183l-17.152,2.602   C316.855,350.264,292.665,360.047,259.011,360.048L259.011,360.048z"/>
	<g>
		<circle style="fill:#050000;" cx="363.623" cy="130.019" r="8"/>
		<path style="fill:#050000;" d="M454.114,129.101c-3.15-20.35-19.28-36.11-40.15-39.23c-36.46-5.43-119.76-7.97-161.17,70.59    c-0.09,0.03-0.18,0.05-0.26,0.08c-2.28,0.82-41.94,15.37-65.03,45.66c-9.6,0.96-50.72,6.09-74.26,25.53    c-0.58-0.08-1.18-0.11-1.78-0.07c-1,0.08-24.76,2-49.2,8.38c-35.62,9.31-54.25,23.38-55.37,41.84c-0.04,0.67,0.01,1.34,0.13,2    c0.11,0.52,0.71,3.24,2.75,6.55c-4.51,5.63-12.7,18.16-8.71,31.22c3.44,11.27,14.72,19.02,33.52,23.02    c5.53,1.18,10.89,1.71,16.07,1.71c14.74,0,28-4.31,39.4-10.27c7.5,1.69,60.65,13.41,96.65,13.41c2.99,0,5.87-0.08,8.59-0.25    c-0.03,0.11-0.07,0.22-0.1,0.33c-0.59,2.06-0.33,4.26,0.72,6.12c1.05,1.87,2.8,3.23,4.86,3.8c2.16,0.59,28.26,7.55,57.74,7.55    c27.8-0.01,58.62-6.2,75.19-29.77c25.89-0.99,44.12-8.84,54.15-23.36c14.09-20.39,6.01-45.81,5.29-47.96    c-4.35-13.63-13.07-47.72-0.59-71.41c3.22-6.11,7.59-11.07,13.2-14.95c5.61,17.45,11.17,40.85,10.12,62.84    c-0.21,4.42,3.2,8.17,7.61,8.38h0.39c4.24,0,7.78-3.33,7.98-7.62c1.21-25.33-5.22-51.58-11.46-70.51    c0.19-0.06,0.37-0.12,0.57-0.18C454.124,162.581,455.964,141.051,454.114,129.101z M416.364,157.201    c-0.48,0.15-0.94,0.31-1.41,0.46c-2.83-7.18-4.95-11.67-5.24-12.27c-1.9-3.98-6.68-5.67-10.66-3.76    c-3.99,1.9-5.67,6.68-3.77,10.66c0.07,0.15,2.16,4.59,4.99,11.88c-9.45,5.61-16.78,13.27-21.87,22.94    c-14.75,27.99-6.15,65.35-1.06,81.95c0.14,0.44,1.04,3.4,1.16,3.88c1.31,5.22,4.13,20.4-3.82,31.91    c-5.59,8.09-15.62,13.24-29.87,15.4c3.95-4.97,9.37-10.58,15.47-13.64c3.95-1.97,5.55-6.78,3.58-10.73    c-1.98-3.95-6.78-5.55-10.74-3.58c-14.45,7.23-25,23.25-28.12,28.39c-0.54,0.89-1.04,1.79-1.09,1.9    c-19.04,38.08-84.93,28.66-109.55,23.64c0.2-0.3,0.4-0.6,0.6-0.9c6.44-9.39,16.97-15.52,28.88-16.82    c28.13-3.09,48.59-10.79,60.83-22.9c10.16-10.07,10.84-19.71,10.89-20.77l-15.99-0.67c0,0,0-0.05,0.01-0.16    c-0.26,1.54-4.74,22.82-57.48,28.59c-14.45,1.58-27.48,8.36-36.6,18.86c-16.73,6.01-66.31-1.77-96.49-7.72    c8.8-6.9,15.57-13.84,19.93-18.31c1.4-1.44,4.44-4.2,4.8-4.56c2.56-2.54,3.16-6.58,1.23-9.8c-2.27-3.79-7.19-5.02-10.98-2.74    c-1.74,1.04-3.33,2.68-6.5,5.93c-12.5,12.81-41.75,42.81-79.58,34.76c-12.31-2.62-19.96-6.89-21.54-12.02    c-1.61-5.2,2.48-12.11,5.51-16.06c5.52,2.61,12.13,3.91,19.83,3.91c11.37,0,25.08-2.85,41.02-8.54c4.16-1.49,6.33-6.06,4.84-10.22    c-1.48-4.17-6.06-6.34-10.22-4.85c-30.29,10.82-43.86,7.74-49.25,4.93c-3.09-1.6-4.48-3.59-5.06-4.71    c1.9-9.8,17.43-19.17,43.09-25.89c12.29-3.22,24.64-5.26,33.53-6.47c-1.63,3.79-2.68,7.89-3.03,12.36    c-0.34,4.4,2.96,8.25,7.37,8.59c0.2,0.01,0.41,0.02,0.62,0.02c4.14,0,7.64-3.19,7.97-7.38c1.81-23.56,39.62-34.85,64.54-38.99    c-3.02,6.98-5.07,14.57-5.72,22.78c-0.35,4.4,2.93,8.26,7.33,8.61c0.22,0.02,0.44,0.03,0.65,0.03c4.13,0,7.63-3.18,7.97-7.36    c2.66-33.36,35.96-55.29,55.85-65.51c-0.68,1.89-1.35,3.8-2,5.76c-1.37,4.2,0.91,8.72,5.11,10.1c4.2,1.37,8.72-0.92,10.1-5.11    c30.03-91.62,110.12-94.02,155.18-87.3c13.68,2.04,24.66,12.67,26.7,25.84C439.514,139.371,438.564,150.541,416.364,157.201z"/>
	</g>
</g>















</svg>
