<?xml version="1.0" encoding="iso-8859-1"?>
<!-- Generator: Adobe Illustrator 19.0.0, SVG Export Plug-In . SVG Version: 6.00 Build 0)  -->
<svg xmlns="http://www.w3.org/2000/svg" xmlns:xlink="http://www.w3.org/1999/xlink" version="1.1" id="Layer_1" x="0px" y="0px" viewBox="0 0 479 479" style="enable-background:new 0 0 479 479;" xml:space="preserve" width="512" height="512">
<g>
	<path style="fill:#61ACD2;" d="M332.09,297c-11.569,0-17.45-5.076-23.137-9.985c-5.7-4.931-11.575-10.015-23.163-10.015   c-11.589,0-17.464,5.084-23.145,10c-5.705,4.924-11.585,10-23.155,10c-11.548,0-17.429-5.067-23.117-9.967   c-2.459-2.139-4.66-4.004-7.251-5.649l-7.971-5.061l6.301-7.032c14.658-16.359,54.871-55.08,111.546-61.293   c3.982-0.437,7.865-0.657,11.543-0.657c16.933,0,30.665,4.609,40.816,13.699c8.082,7.257,18.146,21.404,20.238,47.635l0.779,9.77   l-9.728-1.193c-1.358-0.167-2.79-0.251-4.256-0.251c-11.588,0-17.464,5.084-23.146,10C349.541,291.924,343.66,297,332.09,297z"/>
	<path style="fill:#61ACD2;" d="M146.9,297c-11.569,0-17.45-5.075-23.136-9.984C118.063,282.084,112.188,277,100.6,277   c-1.647,0-3.278,0.118-4.986,0.36l-9.481,1.345l0.364-9.569c0.371-9.752,3.822-29.355,22.776-51.075l8.249-9.452l5.091,11.466   c12.707,28.618,27.608,50.023,40.884,58.726l10.097,6.618l-10.031,6.719C158.541,295.5,153.402,297,146.9,297z"/>
	<g>
		<path d="M471,269c-14.55,0-22.22,6.62-28.38,11.95c-5.41,4.67-9.33,8.05-17.93,8.05c-8.59,0-12.5-3.38-17.92-8.05    c-2.04-1.77-4.25-3.67-6.81-5.43c-0.8-33.31-12.98-51.22-23.26-60.43c-14.16-12.69-33.87-17.75-58.57-15.04    c-66.9,7.33-110.64,56.16-121.16,69.12c-1.21-0.1-2.46-0.17-3.77-0.17c-8.97,0-15.32,2.52-20.32,5.69    c-17.61-5.83-38.25-44.63-47.41-68.55c-0.95-2.49-3.09-4.35-5.7-4.94c-2.6-0.59-5.33,0.15-7.27,1.99    c-33.58,31.82-34.68,62.04-33.83,72.58c-2.41,1.69-4.51,3.5-6.45,5.18C66.81,285.62,62.9,289,54.3,289    c-8.6,0-12.51-3.38-17.92-8.05C30.22,275.62,22.55,269,8,269c-4.42,0-8,3.58-8,8s3.58,8,8,8c8.6,0,12.51,3.38,17.92,8.05    C32.08,298.38,39.75,305,54.3,305c14.55,0,22.22-6.62,28.38-11.95C88.09,288.38,92,285,100.6,285c8.6,0,12.51,3.38,17.92,8.05    c6.16,5.33,13.82,11.95,28.38,11.95c14.55,0,22.22-6.62,28.38-11.95c5.41-4.67,9.32-8.05,17.92-8.05c8.59,0,12.5,3.38,17.91,8.05    c6.16,5.33,13.83,11.95,28.38,11.95c14.55,0,22.22-6.62,28.38-11.95c5.41-4.67,9.32-8.05,17.92-8.05c8.6,0,12.51,3.38,17.92,8.05    c6.16,5.33,13.83,11.95,28.38,11.95s22.22-6.62,28.38-11.95c5.41-4.67,9.32-8.05,17.92-8.05c8.6,0,12.51,3.38,17.92,8.05    c6.16,5.33,13.83,11.95,28.38,11.95c14.56,0,22.23-6.62,28.39-11.95c5.41-4.67,9.32-8.05,17.92-8.05c4.42,0,8-3.58,8-8    S475.42,269,471,269z M146.9,289c-8.6,0-12.51-3.38-17.92-8.05c-6.16-5.33-13.83-11.95-28.38-11.95c-2.19,0-4.21,0.17-6.11,0.44    c0.35-9.2,3.68-26.49,20.81-46.12c7.77,17.5,23.9,49.12,43.81,62.17C155.87,287.66,152.31,289,146.9,289z M378.39,269    c-14.55,0-22.22,6.62-28.38,11.95c-5.41,4.67-9.32,8.05-17.92,8.05c-8.6,0-12.51-3.38-17.92-8.05    c-6.16-5.33-13.83-11.95-28.38-11.95c-14.55,0-22.22,6.62-28.38,11.95c-5.41,4.67-9.32,8.05-17.92,8.05    c-8.59,0-12.5-3.38-17.92-8.05c-2.38-2.07-5.01-4.32-8.16-6.32c14.14-15.78,52.56-52.77,106.46-58.68    c20-2.19,35.52,1.53,46.15,11.05c7.25,6.51,15.74,18.99,17.6,42.31C381.98,269.11,380.24,269,378.39,269z"/>
		<path d="M471,329c-14.553,0-22.221,6.624-28.382,11.946c-5.413,4.676-9.324,8.054-17.923,8.054c-4.418,0-8,3.582-8,8s3.582,8,8,8    c14.553,0,22.221-6.624,28.382-11.946C458.49,348.378,462.401,345,471,345c4.418,0,8-3.582,8-8S475.418,329,471,329z"/>
		<path d="M386.39,337c0-4.418-3.581-8-8-8c-14.552,0-22.219,6.624-28.379,11.946c-5.412,4.676-9.322,8.054-17.919,8.054    c-4.418,0-8,3.582-8,8s3.582,8,8,8c14.552,0,22.219-6.624,28.379-11.946c5.412-4.676,9.322-8.054,17.919-8.054    C382.809,345,386.39,341.418,386.39,337z"/>
		<path d="M293.791,337c0-4.418-3.582-8-8-8c-14.552,0-22.219,6.624-28.379,11.946C252,345.622,248.09,349,239.493,349    c-4.419,0-8,3.582-8,8s3.581,8,8,8c14.552,0,22.219-6.624,28.379-11.946c5.412-4.676,9.322-8.054,17.919-8.054    C290.209,345,293.791,341.418,293.791,337z"/>
		<path d="M201.196,337c0-4.418-3.581-8-8-8c-14.552,0-22.219,6.624-28.38,11.946c-5.412,4.676-9.322,8.054-17.92,8.054    c-4.419,0-8,3.582-8,8s3.581,8,8,8c14.552,0,22.219-6.624,28.38-11.946c5.412-4.676,9.322-8.054,17.92-8.054    C197.614,345,201.196,341.418,201.196,337z"/>
		<path d="M108.598,337c0-4.418-3.581-8-8-8c-14.552,0-22.219,6.624-28.38,11.946C66.806,345.622,62.896,349,54.299,349    c-4.418,0-8,3.582-8,8s3.582,8,8,8c14.552,0,22.219-6.624,28.379-11.946C88.09,348.378,92,345,100.598,345    C105.017,345,108.598,341.418,108.598,337z"/>
		<path d="M424.695,409c-8.599,0-12.51-3.378-17.923-8.054C400.611,395.624,392.943,389,378.39,389c-4.418,0-8,3.582-8,8    s3.582,8,8,8c8.599,0,12.51,3.378,17.923,8.054c6.161,5.322,13.829,11.946,28.382,11.946c4.418,0,8-3.582,8-8    S429.113,409,424.695,409z"/>
		<path d="M332.091,409c-8.598,0-12.508-3.378-17.92-8.054c-6.161-5.322-13.828-11.946-28.38-11.946c-4.418,0-8,3.582-8,8    s3.582,8,8,8c8.598,0,12.508,3.378,17.92,8.054c6.161,5.322,13.828,11.946,28.38,11.946c4.419,0,8-3.582,8-8    S336.51,409,332.091,409z"/>
		<path d="M239.493,409c-8.597,0-12.507-3.378-17.919-8.054c-6.16-5.322-13.827-11.946-28.379-11.946c-4.418,0-8,3.582-8,8    s3.582,8,8,8c8.597,0,12.507,3.378,17.919,8.054c6.16,5.322,13.827,11.946,28.379,11.946c4.418,0,8-3.582,8-8    S243.912,409,239.493,409z"/>
		<path d="M146.896,409c-8.597,0-12.507-3.378-17.919-8.054C122.817,395.624,115.15,389,100.598,389c-4.418,0-8,3.582-8,8    s3.582,8,8,8c8.597,0,12.507,3.378,17.919,8.054c6.16,5.322,13.827,11.946,28.379,11.946c4.419,0,8-3.582,8-8    S151.314,409,146.896,409z"/>
		<path d="M54.299,409c-8.598,0-12.508-3.378-17.919-8.054C30.219,395.624,22.552,389,8,389c-4.419,0-8,3.582-8,8s3.581,8,8,8    c8.598,0,12.508,3.378,17.919,8.054C32.08,418.376,39.747,425,54.299,425c4.418,0,8-3.582,8-8S58.717,409,54.299,409z"/>
		<path d="M345,184c4.418,0,8-3.581,8-8V95.75C353,81.551,364.551,70,378.75,70c4.418,0,8-3.581,8-8s-3.582-8-8-8    C355.729,54,337,72.729,337,95.75V176C337,180.419,340.581,184,345,184z"/>
		<path d="M277,111c14.199,0,25.75,11.551,25.75,25.75V176c0,4.419,3.581,8,8,8c4.418,0,8-3.581,8-8v-39.25    C318.75,113.729,300.021,95,277,95c-4.419,0-8,3.581-8,8S272.581,111,277,111z"/>
		<circle cx="343" cy="246" r="8"/>
	</g>
</g>















</svg>
